<svg width="84" height="83" viewBox="0 0 84 83" fill="none" xmlns="http://www.w3.org/2000/svg">
<g clip-path="url(#clip0_86_748)">
<rect x="0.229492" y="0.317383" width="83" height="82" rx="8" fill="#041329"/>
<path d="M25.8428 62.9385V40.1963L12.5498 30.1064V58.1338C12.5498 61.3369 14.1709 62.9385 17.4131 62.9385" fill="#4285F4"/>
<path d="M25.1943 40.0361L41.7295 52.3682L58.2646 40.0361V24.3408L41.7295 36.6729L25.1943 24.3408" fill="#EA4335"/>
<path d="M57.6162 62.9385V40.1963L70.9092 30.1064V58.1338C70.9092 61.3369 69.2881 62.9385 66.0459 62.9385" fill="#34A853"/>
<path d="M12.5498 30.4269L25.8428 40.5168V24.8215L20.9795 21.1379C16.6025 17.7746 12.5498 21.1379 12.5498 25.3019" fill="#C5221F"/>
<path d="M70.9092 30.4269L57.6162 40.5168V24.8215L62.4795 21.1379C66.8564 17.7746 70.9092 21.1379 70.9092 25.3019" fill="#FBBC04"/>
</g>
<defs>
<clipPath id="clip0_86_748">
<rect x="0.229492" y="0.317383" width="83" height="82" rx="8" fill="white"/>
</clipPath>
</defs>
</svg>
