<svg
                width="84"
                height="83"
                viewBox="0 0 84 83"
                fill="none"
                xmlns="http://www.w3.org/2000/svg"
                class="m-2"
              >
                <g clip-path="url(#clip0_86_748)">
                  <rect x="0.0605469" y="0.714844" width="83" height="82" rx="8" fill="#041329" />
                  <path
                    d="M25.6738 63.3359V40.5938L12.3809 30.5039V58.5312C12.3809 61.7344 14.002 63.3359 17.2441 63.3359"
                    fill="#4285F4"
                  />
                  <path
                    d="M25.0254 40.4336L41.5605 52.7656L58.0957 40.4336V24.7383L41.5605 37.0703L25.0254 24.7383"
                    fill="#EA4335"
                  />
                  <path
                    d="M57.4473 63.3359V40.5938L70.7402 30.5039V58.5312C70.7402 61.7344 69.1191 63.3359 65.877 63.3359"
                    fill="#34A853"
                  />
                  <path
                    d="M12.3809 30.8244L25.6738 40.9142V25.2189L20.8105 21.5353C16.4336 18.172 12.3809 21.5353 12.3809 25.6994"
                    fill="#C5221F"
                  />
                  <path
                    d="M70.7402 30.8244L57.4473 40.9142V25.2189L62.3105 21.5353C66.6875 18.172 70.7402 21.5353 70.7402 25.6994"
                    fill="#FBBC04"
                  />
                </g>
                <defs>
                  <clipPath id="clip0_86_748">
                    <rect x="0.0605469" y="0.714844" width="83" height="82" rx="8" fill="white" />
                  </clipPath>
                </defs>
              </svg>