<svg width="309" height="42" viewBox="0 0 309 42" fill="none" xmlns="http://www.w3.org/2000/svg">
<path d="M39.6997 9.61479L28.4931 2.29626C26.9745 1.30455 25.0335 1.89148 24.1578 3.60721C23.2821 5.32294 23.8032 7.51775 25.3217 8.50946L36.5283 15.828C38.0469 16.8197 39.9879 16.2328 40.8636 14.517C41.7394 12.8013 41.2182 10.6065 39.6997 9.61479Z" fill="#38A852"/>
<path d="M17.1275 16.8641L5.92094 9.54556C4.40237 8.55385 2.4614 9.14078 1.58565 10.8565C0.709912 12.5722 1.23103 14.767 2.7496 15.7588L13.9562 23.0773C15.4748 24.069 17.4157 23.4821 18.2915 21.7663C19.1672 20.0506 18.6461 17.8558 17.1275 16.8641Z" fill="#428EFF"/>
<path d="M5.92112 15.8274L17.1277 8.50885C18.6463 7.51714 19.1674 5.32232 18.2916 3.6066C17.4159 1.89087 15.4749 1.30394 13.9564 2.29565L2.74978 9.61418C1.2312 10.6059 0.710087 12.8007 1.58583 14.5164C2.46157 16.2322 4.40255 16.8191 5.92112 15.8274Z" fill="#FF5145"/>
<path d="M28.5051 23.075L39.7117 15.7565C41.2303 14.7648 41.7514 12.57 40.8756 10.8542C39.9999 9.13852 38.0589 8.55159 36.5403 9.5433L25.3338 16.8618C23.8152 17.8535 23.2941 20.0484 24.1698 21.7641C25.0456 23.4798 26.9865 24.0667 28.5051 23.075Z" fill="#FFBB01"/>
<path d="M72.424 14.1666C72.424 16.3956 71.7627 18.1714 70.4402 19.4939C68.9542 21.0691 67.0001 21.8566 64.5779 21.8566C62.2598 21.8566 60.2982 21.0542 58.6934 19.4493C57.0885 17.8444 56.286 15.8681 56.286 13.5202C56.286 11.1723 57.0885 9.19592 58.6934 7.59104C60.2982 5.98616 62.2598 5.18372 64.5779 5.18372C65.7519 5.18372 66.8589 5.39176 67.8991 5.80784C68.9393 6.22392 69.7938 6.81089 70.4625 7.56875L68.9913 9.03989C68.501 8.44549 67.862 7.98483 67.0744 7.65791C66.3017 7.31613 65.4695 7.14524 64.5779 7.14524C62.8393 7.14524 61.3682 7.74707 60.1645 8.95073C58.9757 10.1692 58.3813 11.6924 58.3813 13.5202C58.3813 15.348 58.9757 16.8711 60.1645 18.0896C61.3682 19.2933 62.8393 19.8951 64.5779 19.8951C66.1679 19.8951 67.4905 19.4493 68.5455 18.5577C69.6006 17.6661 70.2099 16.4402 70.3733 14.8799H64.5779V12.9629H72.3125C72.3868 13.379 72.424 13.7802 72.424 14.1666ZM73.826 16.0389C73.826 14.3598 74.3535 12.9704 75.4086 11.8707C76.4785 10.7711 77.8233 10.2213 79.4431 10.2213C81.0628 10.2213 82.4002 10.7711 83.4553 11.8707C84.5252 12.9704 85.0602 14.3598 85.0602 16.0389C85.0602 17.733 84.5252 19.1224 83.4553 20.2072C82.4002 21.3068 81.0628 21.8566 79.4431 21.8566C77.8233 21.8566 76.4785 21.3068 75.4086 20.2072C74.3535 19.1075 73.826 17.7181 73.826 16.0389ZM75.8767 16.0389C75.8767 17.2129 76.2185 18.1639 76.902 18.8921C77.5856 19.6202 78.4326 19.9843 79.4431 19.9843C80.4536 19.9843 81.3006 19.6202 81.9841 18.8921C82.6677 18.1639 83.0095 17.2129 83.0095 16.0389C83.0095 14.8799 82.6677 13.9363 81.9841 13.2081C81.2857 12.4651 80.4387 12.0936 79.4431 12.0936C78.4475 12.0936 77.6004 12.4651 76.902 13.2081C76.2185 13.9363 75.8767 14.8799 75.8767 16.0389ZM86.2988 16.0389C86.2988 14.3598 86.8264 12.9704 87.8814 11.8707C88.9513 10.7711 90.2962 10.2213 91.9159 10.2213C93.5356 10.2213 94.873 10.7711 95.9281 11.8707C96.998 12.9704 97.533 14.3598 97.533 16.0389C97.533 17.733 96.998 19.1224 95.9281 20.2072C94.873 21.3068 93.5356 21.8566 91.9159 21.8566C90.2962 21.8566 88.9513 21.3068 87.8814 20.2072C86.8264 19.1075 86.2988 17.7181 86.2988 16.0389ZM88.3495 16.0389C88.3495 17.2129 88.6913 18.1639 89.3748 18.8921C90.0584 19.6202 90.9054 19.9843 91.9159 19.9843C92.9264 19.9843 93.7734 19.6202 94.457 18.8921C95.1405 18.1639 95.4823 17.2129 95.4823 16.0389C95.4823 14.8799 95.1405 13.9363 94.457 13.2081C93.7585 12.4651 92.9115 12.0936 91.9159 12.0936C90.9203 12.0936 90.0733 12.4651 89.3748 13.2081C88.6913 13.9363 88.3495 14.8799 88.3495 16.0389ZM104.3 19.9843C105.31 19.9843 106.135 19.6202 106.774 18.8921C107.442 18.1639 107.777 17.2129 107.777 16.0389C107.777 14.8947 107.442 13.9511 106.774 13.2081C106.12 12.4651 105.295 12.0936 104.3 12.0936C103.319 12.0936 102.494 12.4651 101.825 13.2081C101.157 13.9511 100.822 14.8947 100.822 16.0389C100.822 17.198 101.157 18.1416 101.825 18.8698C102.494 19.6128 103.319 19.9843 104.3 19.9843ZM104.233 26.6713C103.623 26.6713 103.051 26.5896 102.516 26.4261C101.981 26.2775 101.491 26.062 101.045 25.7797C100.614 25.4973 100.243 25.163 99.9307 24.7766C99.6187 24.3903 99.3809 23.9593 99.2174 23.4838L101.157 22.6814C101.38 23.3204 101.766 23.833 102.316 24.2194C102.866 24.6057 103.505 24.7989 104.233 24.7989C105.347 24.7989 106.217 24.4646 106.841 23.7959C107.465 23.1272 107.777 22.2059 107.777 21.0319V19.9843H107.688C107.301 20.5638 106.774 21.0245 106.105 21.3663C105.451 21.6932 104.738 21.8566 103.965 21.8566C102.539 21.8566 101.313 21.2994 100.287 20.1849C99.2769 19.0407 98.7716 17.6587 98.7716 16.0389C98.7716 14.4192 99.2769 13.0447 100.287 11.9153C101.313 10.7859 102.539 10.2213 103.965 10.2213C104.738 10.2213 105.451 10.3921 106.105 10.7339C106.774 11.0608 107.301 11.5141 107.688 12.0936H107.777V10.5779H109.738V21.0319C109.738 22.7854 109.241 24.1599 108.245 25.1556C107.234 26.166 105.897 26.6713 104.233 26.6713ZM114.289 5.54036V21.5H112.239V5.54036H114.289ZM121.583 21.8566C119.978 21.8566 118.656 21.3068 117.615 20.2072C116.575 19.1075 116.055 17.7181 116.055 16.0389C116.055 14.3746 116.56 12.9926 117.571 11.893C118.581 10.7785 119.874 10.2213 121.449 10.2213C123.069 10.2213 124.354 10.7488 125.305 11.8038C126.271 12.844 126.754 14.3078 126.754 16.195L126.732 16.4179H118.15C118.18 17.4878 118.537 18.3497 119.22 19.0035C119.904 19.6574 120.721 19.9843 121.672 19.9843C122.98 19.9843 124.005 19.3304 124.748 18.0228L126.576 18.9144C126.086 19.8357 125.402 20.5564 124.525 21.0765C123.663 21.5966 122.683 21.8566 121.583 21.8566ZM118.306 14.7238H124.57C124.51 13.966 124.198 13.3419 123.634 12.8515C123.084 12.3462 122.341 12.0936 121.405 12.0936C120.632 12.0936 119.963 12.3314 119.399 12.8069C118.849 13.2824 118.485 13.9214 118.306 14.7238ZM133.884 21.5V5.54036H138.765C141.203 5.54036 143.157 6.27593 144.628 7.74707C146.114 9.21821 146.857 11.1426 146.857 13.5202C146.857 15.9126 146.114 17.8444 144.628 19.3156C143.157 20.7719 141.203 21.5 138.765 21.5H133.884ZM135.935 7.50188V19.5385H138.765C140.623 19.5385 142.087 19.0109 143.157 17.9559C144.227 16.886 144.761 15.4074 144.761 13.5202C144.761 11.6478 144.227 10.1767 143.157 9.10676C142.087 8.03684 140.623 7.50188 138.765 7.50188H135.935ZM153.516 21.8566C151.911 21.8566 150.589 21.3068 149.548 20.2072C148.508 19.1075 147.988 17.7181 147.988 16.0389C147.988 14.3746 148.493 12.9926 149.504 11.893C150.514 10.7785 151.807 10.2213 153.382 10.2213C155.002 10.2213 156.287 10.7488 157.238 11.8038C158.204 12.844 158.687 14.3078 158.687 16.195L158.665 16.4179H150.083C150.113 17.4878 150.47 18.3497 151.153 19.0035C151.837 19.6574 152.654 19.9843 153.605 19.9843C154.913 19.9843 155.938 19.3304 156.681 18.0228L158.509 18.9144C158.019 19.8357 157.335 20.5564 156.458 21.0765C155.596 21.5966 154.616 21.8566 153.516 21.8566ZM150.239 14.7238H156.503C156.443 13.966 156.131 13.3419 155.567 12.8515C155.017 12.3462 154.274 12.0936 153.338 12.0936C152.565 12.0936 151.896 12.3314 151.332 12.8069C150.782 13.2824 150.418 13.9214 150.239 14.7238ZM165.65 21.5H163.599L159.186 10.5779H161.415L164.625 19.0481H164.669L167.924 10.5779H170.108L165.65 21.5ZM176.024 21.8566C174.419 21.8566 173.096 21.3068 172.056 20.2072C171.016 19.1075 170.496 17.7181 170.496 16.0389C170.496 14.3746 171.001 12.9926 172.012 11.893C173.022 10.7785 174.315 10.2213 175.89 10.2213C177.51 10.2213 178.795 10.7488 179.746 11.8038C180.712 12.844 181.195 14.3078 181.195 16.195L181.173 16.4179H172.591C172.621 17.4878 172.977 18.3497 173.661 19.0035C174.345 19.6574 175.162 19.9843 176.113 19.9843C177.421 19.9843 178.446 19.3304 179.189 18.0228L181.017 18.9144C180.526 19.8357 179.843 20.5564 178.966 21.0765C178.104 21.5966 177.123 21.8566 176.024 21.8566ZM172.747 14.7238H179.011C178.951 13.966 178.639 13.3419 178.074 12.8515C177.525 12.3462 176.782 12.0936 175.845 12.0936C175.073 12.0936 174.404 12.3314 173.839 12.8069C173.29 13.2824 172.925 13.9214 172.747 14.7238ZM185.121 5.54036V21.5H183.07V5.54036H185.121ZM186.887 16.0389C186.887 14.3598 187.414 12.9704 188.469 11.8707C189.539 10.7711 190.884 10.2213 192.504 10.2213C194.124 10.2213 195.461 10.7711 196.516 11.8707C197.586 12.9704 198.121 14.3598 198.121 16.0389C198.121 17.733 197.586 19.1224 196.516 20.2072C195.461 21.3068 194.124 21.8566 192.504 21.8566C190.884 21.8566 189.539 21.3068 188.469 20.2072C187.414 19.1075 186.887 17.7181 186.887 16.0389ZM188.937 16.0389C188.937 17.2129 189.279 18.1639 189.963 18.8921C190.646 19.6202 191.493 19.9843 192.504 19.9843C193.514 19.9843 194.361 19.6202 195.045 18.8921C195.729 18.1639 196.07 17.2129 196.07 16.0389C196.07 14.8799 195.729 13.9363 195.045 13.2081C194.347 12.4651 193.5 12.0936 192.504 12.0936C191.508 12.0936 190.661 12.4651 189.963 13.2081C189.279 13.9363 188.937 14.8799 188.937 16.0389ZM205.225 19.9843C206.205 19.9843 207.03 19.6128 207.699 18.8698C208.367 18.1416 208.702 17.198 208.702 16.0389C208.702 14.8947 208.367 13.9511 207.699 13.2081C207.03 12.4651 206.205 12.0936 205.225 12.0936C204.229 12.0936 203.397 12.4651 202.728 13.2081C202.074 13.9511 201.747 14.8947 201.747 16.0389C201.747 17.198 202.074 18.1491 202.728 18.8921C203.397 19.6202 204.229 19.9843 205.225 19.9843ZM205.559 21.8566C204.756 21.8566 204.021 21.6858 203.352 21.344C202.698 21.0022 202.193 20.549 201.836 19.9843H201.747L201.836 21.5V26.3146H199.786V10.5779H201.747V12.0936H201.836C202.193 11.5289 202.698 11.0757 203.352 10.7339C204.021 10.3921 204.756 10.2213 205.559 10.2213C207 10.2213 208.219 10.7859 209.214 11.9153C210.24 13.0595 210.752 14.4341 210.752 16.0389C210.752 17.6587 210.24 19.0332 209.214 20.1626C208.219 21.292 207 21.8566 205.559 21.8566ZM217.535 21.8566C215.93 21.8566 214.607 21.3068 213.567 20.2072C212.527 19.1075 212.007 17.7181 212.007 16.0389C212.007 14.3746 212.512 12.9926 213.522 11.893C214.533 10.7785 215.826 10.2213 217.401 10.2213C219.021 10.2213 220.306 10.7488 221.257 11.8038C222.223 12.844 222.706 14.3078 222.706 16.195L222.684 16.4179H214.102C214.132 17.4878 214.488 18.3497 215.172 19.0035C215.855 19.6574 216.673 19.9843 217.624 19.9843C218.931 19.9843 219.957 19.3304 220.7 18.0228L222.527 18.9144C222.037 19.8357 221.354 20.5564 220.477 21.0765C219.615 21.5966 218.634 21.8566 217.535 21.8566ZM214.258 14.7238H220.521C220.462 13.966 220.15 13.3419 219.585 12.8515C219.035 12.3462 218.292 12.0936 217.356 12.0936C216.583 12.0936 215.915 12.3314 215.35 12.8069C214.8 13.2824 214.436 13.9214 214.258 14.7238ZM226.632 21.5H224.581V10.5779H226.543V12.3611H226.632C226.84 11.7816 227.263 11.2912 227.902 10.89C228.556 10.4739 229.195 10.2658 229.819 10.2658C230.414 10.2658 230.919 10.355 231.335 10.5333L230.711 12.5171C230.458 12.4131 230.057 12.3611 229.507 12.3611C228.734 12.3611 228.058 12.6732 227.479 13.2973C226.914 13.9214 226.632 14.6495 226.632 15.4817V21.5ZM252.855 14.1666C252.855 16.3956 252.194 18.1714 250.872 19.4939C249.386 21.0691 247.432 21.8566 245.009 21.8566C242.691 21.8566 240.73 21.0542 239.125 19.4493C237.52 17.8444 236.717 15.8681 236.717 13.5202C236.717 11.1723 237.52 9.19592 239.125 7.59104C240.73 5.98616 242.691 5.18372 245.009 5.18372C246.183 5.18372 247.29 5.39176 248.331 5.80784C249.371 6.22392 250.225 6.81089 250.894 7.56875L249.423 9.03989C248.932 8.44549 248.293 7.98483 247.506 7.65791C246.733 7.31613 245.901 7.14524 245.009 7.14524C243.271 7.14524 241.8 7.74707 240.596 8.95073C239.407 10.1692 238.813 11.6924 238.813 13.5202C238.813 15.348 239.407 16.8711 240.596 18.0896C241.8 19.2933 243.271 19.8951 245.009 19.8951C246.599 19.8951 247.922 19.4493 248.977 18.5577C250.032 17.6661 250.641 16.4402 250.805 14.8799H245.009V12.9629H252.744C252.818 13.379 252.855 13.7802 252.855 14.1666ZM256.606 21.5H254.555V10.5779H256.517V12.3611H256.606C256.814 11.7816 257.237 11.2912 257.876 10.89C258.53 10.4739 259.169 10.2658 259.793 10.2658C260.388 10.2658 260.893 10.355 261.309 10.5333L260.685 12.5171C260.432 12.4131 260.031 12.3611 259.481 12.3611C258.708 12.3611 258.032 12.6732 257.453 13.2973C256.888 13.9214 256.606 14.6495 256.606 15.4817V21.5ZM261.354 16.0389C261.354 14.3598 261.881 12.9704 262.936 11.8707C264.006 10.7711 265.351 10.2213 266.971 10.2213C268.591 10.2213 269.928 10.7711 270.983 11.8707C272.053 12.9704 272.588 14.3598 272.588 16.0389C272.588 17.733 272.053 19.1224 270.983 20.2072C269.928 21.3068 268.591 21.8566 266.971 21.8566C265.351 21.8566 264.006 21.3068 262.936 20.2072C261.881 19.1075 261.354 17.7181 261.354 16.0389ZM263.404 16.0389C263.404 17.2129 263.746 18.1639 264.43 18.8921C265.113 19.6202 265.96 19.9843 266.971 19.9843C267.981 19.9843 268.828 19.6202 269.512 18.8921C270.195 18.1639 270.537 17.2129 270.537 16.0389C270.537 14.8799 270.195 13.9363 269.512 13.2081C268.813 12.4651 267.966 12.0936 266.971 12.0936C265.975 12.0936 265.128 12.4651 264.43 13.2081C263.746 13.9363 263.404 14.8799 263.404 16.0389ZM283.927 21.5H281.965V19.9843H281.876C281.564 20.5192 281.081 20.965 280.427 21.3217C279.788 21.6783 279.119 21.8566 278.421 21.8566C277.083 21.8566 276.051 21.4777 275.323 20.7198C274.609 19.9471 274.253 18.8549 274.253 17.4432V10.5779H276.303V17.3095C276.348 19.0927 277.247 19.9843 279 19.9843C279.818 19.9843 280.501 19.6574 281.051 19.0035C281.601 18.3348 281.876 17.5398 281.876 16.6185V10.5779H283.927V21.5ZM291.772 19.9843C292.753 19.9843 293.578 19.6128 294.247 18.8698C294.915 18.1416 295.25 17.198 295.25 16.0389C295.25 14.8947 294.915 13.9511 294.247 13.2081C293.578 12.4651 292.753 12.0936 291.772 12.0936C290.777 12.0936 289.945 12.4651 289.276 13.2081C288.622 13.9511 288.295 14.8947 288.295 16.0389C288.295 17.198 288.622 18.1491 289.276 18.8921C289.945 19.6202 290.777 19.9843 291.772 19.9843ZM292.107 21.8566C291.304 21.8566 290.569 21.6858 289.9 21.344C289.246 21.0022 288.741 20.549 288.384 19.9843H288.295L288.384 21.5V26.3146H286.334V10.5779H288.295V12.0936H288.384C288.741 11.5289 289.246 11.0757 289.9 10.7339C290.569 10.3921 291.304 10.2213 292.107 10.2213C293.548 10.2213 294.767 10.7859 295.762 11.9153C296.788 13.0595 297.3 14.4341 297.3 16.0389C297.3 17.6587 296.788 19.0332 295.762 20.1626C294.767 21.292 293.548 21.8566 292.107 21.8566ZM307.429 18.4686C307.429 19.4196 307.012 20.222 306.18 20.8759C305.348 21.5297 304.3 21.8566 303.037 21.8566C301.938 21.8566 300.972 21.5743 300.14 21.0096C299.308 20.4301 298.713 19.6722 298.356 18.736L300.184 17.9559C300.452 18.6097 300.838 19.1224 301.343 19.4939C301.863 19.8505 302.428 20.0289 303.037 20.0289C303.691 20.0289 304.234 19.8877 304.665 19.6053C305.11 19.323 305.333 18.9887 305.333 18.6023C305.333 17.9039 304.798 17.3912 303.728 17.0643L301.856 16.5962C299.731 16.0612 298.669 15.0359 298.669 13.5202C298.669 12.5246 299.07 11.7295 299.872 11.1351C300.69 10.5259 301.73 10.2213 302.993 10.2213C303.959 10.2213 304.828 10.4516 305.601 10.9122C306.388 11.3729 306.938 11.9896 307.25 12.7623L305.422 13.5202C305.214 13.0595 304.873 12.7029 304.397 12.4503C303.936 12.1828 303.416 12.049 302.837 12.049C302.302 12.049 301.819 12.1828 301.388 12.4503C300.972 12.7177 300.764 13.0447 300.764 13.431C300.764 14.0551 301.351 14.5009 302.525 14.7684L304.174 15.1919C306.344 15.7269 307.429 16.8191 307.429 18.4686Z" fill="#F1F2F2"/>
<path d="M57.8049 38.5H56.4902V28.2684H57.8049V38.5ZM65.7977 38.5H64.2115L62.0251 35.199L60.9534 36.2565V38.5H59.6387V28.2684H60.9534V34.5702L63.9828 31.4979H65.6691V31.5551L62.9397 34.2702L65.7977 38.4428V38.5ZM65.937 34.9989C65.937 33.9224 66.2752 33.0317 66.9516 32.3267C67.6375 31.6217 68.4997 31.2693 69.5381 31.2693C70.5765 31.2693 71.4339 31.6217 72.1103 32.3267C72.7962 33.0317 73.1392 33.9224 73.1392 34.9989C73.1392 36.085 72.7962 36.9757 72.1103 37.6712C71.4339 38.3762 70.5765 38.7286 69.5381 38.7286C68.4997 38.7286 67.6375 38.3762 66.9516 37.6712C66.2752 36.9662 65.937 36.0755 65.937 34.9989ZM67.2517 34.9989C67.2517 35.7516 67.4708 36.3613 67.909 36.8281C68.3472 37.2949 68.8903 37.5283 69.5381 37.5283C70.1859 37.5283 70.7289 37.2949 71.1671 36.8281C71.6054 36.3613 71.8245 35.7516 71.8245 34.9989C71.8245 34.2559 71.6054 33.6509 71.1671 33.1841C70.7194 32.7078 70.1764 32.4696 69.5381 32.4696C68.8998 32.4696 68.3568 32.7078 67.909 33.1841C67.4708 33.6509 67.2517 34.2559 67.2517 34.9989ZM76.8963 38.6143C76.3247 38.6143 75.8484 38.4381 75.4673 38.0856C75.0958 37.7331 74.9052 37.2425 74.8957 36.6137V32.6983H73.6668V31.4979H74.8957V29.3544H76.2104V31.4979H77.9252V32.6983H76.2104V36.185C76.2104 36.6518 76.3009 36.971 76.4819 37.1424C76.6629 37.3044 76.8677 37.3854 77.0964 37.3854C77.2012 37.3854 77.3012 37.3759 77.3965 37.3568C77.5012 37.3282 77.5965 37.2949 77.6823 37.2568L78.0967 38.4285C77.7537 38.5524 77.3536 38.6143 76.8963 38.6143ZM88.5175 28.2684V29.5259H83.859V32.7697H88.0603V33.9986H83.859V37.2425H88.5175V38.5H82.5443V28.2684H88.5175ZM96.2197 38.5H94.6335L92.4472 35.199L91.3754 36.2565V38.5H90.0607V28.2684H91.3754V34.5702L94.4049 31.4979H96.0911V31.5551L93.3617 34.2702L96.2197 38.4428V38.5ZM100.398 37.5283C101.027 37.5283 101.556 37.2901 101.984 36.8138C102.413 36.347 102.627 35.742 102.627 34.9989C102.627 34.2654 102.413 33.6605 101.984 33.1841C101.556 32.7078 101.027 32.4696 100.398 32.4696C99.7598 32.4696 99.2263 32.7078 98.7976 33.1841C98.3785 33.6605 98.1689 34.2654 98.1689 34.9989C98.1689 35.742 98.3785 36.3517 98.7976 36.8281C99.2263 37.2949 99.7598 37.5283 100.398 37.5283ZM100.612 38.7286C100.098 38.7286 99.6264 38.6191 99.1977 38.4C98.7786 38.1809 98.4547 37.8903 98.226 37.5283H98.1689L98.226 38.5V41.5866H96.9113V31.4979H98.1689V32.4696H98.226C98.4547 32.1076 98.7786 31.817 99.1977 31.5979C99.6264 31.3788 100.098 31.2693 100.612 31.2693C101.537 31.2693 102.318 31.6313 102.956 32.3553C103.613 33.0889 103.942 33.9701 103.942 34.9989C103.942 36.0374 103.613 36.9186 102.956 37.6426C102.318 38.3666 101.537 38.7286 100.612 38.7286ZM108.29 38.7286C107.261 38.7286 106.413 38.3762 105.746 37.6712C105.079 36.9662 104.746 36.0755 104.746 34.9989C104.746 33.932 105.07 33.046 105.718 32.341C106.366 31.6265 107.194 31.2693 108.204 31.2693C109.243 31.2693 110.067 31.6075 110.676 32.2838C111.296 32.9507 111.605 33.8891 111.605 35.099L111.591 35.2419H106.089C106.108 35.9278 106.337 36.4803 106.775 36.8995C107.213 37.3187 107.737 37.5283 108.347 37.5283C109.185 37.5283 109.843 37.1091 110.319 36.2708L111.491 36.8424C111.177 37.433 110.738 37.8951 110.176 38.2285C109.624 38.5619 108.995 38.7286 108.29 38.7286ZM106.189 34.1558H110.205C110.167 33.67 109.967 33.2699 109.605 32.9555C109.252 32.6316 108.776 32.4696 108.176 32.4696C107.68 32.4696 107.252 32.622 106.89 32.9269C106.537 33.2318 106.304 33.6414 106.189 34.1558ZM112.808 31.4979H114.065V32.4696H114.122C114.322 32.1267 114.627 31.8409 115.037 31.6122C115.456 31.3836 115.889 31.2693 116.337 31.2693C117.195 31.2693 117.852 31.517 118.309 32.0123C118.776 32.4982 119.009 33.1936 119.009 34.0987V38.5H117.695V34.1844C117.666 33.0412 117.09 32.4696 115.966 32.4696C115.442 32.4696 115.003 32.684 114.651 33.1127C114.298 33.5318 114.122 34.0368 114.122 34.6274V38.5H112.808V31.4979ZM123.696 38.7286C122.668 38.7286 121.82 38.3762 121.153 37.6712C120.486 36.9662 120.152 36.0755 120.152 34.9989C120.152 33.932 120.476 33.046 121.124 32.341C121.772 31.6265 122.601 31.2693 123.611 31.2693C124.649 31.2693 125.473 31.6075 126.083 32.2838C126.702 32.9507 127.012 33.8891 127.012 35.099L126.997 35.2419H121.496C121.515 35.9278 121.743 36.4803 122.182 36.8995C122.62 37.3187 123.144 37.5283 123.754 37.5283C124.592 37.5283 125.249 37.1091 125.726 36.2708L126.897 36.8424C126.583 37.433 126.145 37.8951 125.583 38.2285C125.03 38.5619 124.401 38.7286 123.696 38.7286ZM121.596 34.1558H125.611C125.573 33.67 125.373 33.2699 125.011 32.9555C124.659 32.6316 124.182 32.4696 123.582 32.4696C123.087 32.4696 122.658 32.622 122.296 32.9269C121.943 33.2318 121.71 33.6414 121.596 34.1558Z" fill="#D1D3D4"/>
</svg>
