<svg width="38" height="39" viewBox="0 0 38 39" fill="none" xmlns="http://www.w3.org/2000/svg">
<path d="M33.6439 0.595703C34.7489 0.595703 35.8088 1.03469 36.5902 1.81609C37.3716 2.59749 37.8105 3.6573 37.8105 4.76237V33.929C37.8105 35.0341 37.3716 36.0939 36.5902 36.8753C35.8088 37.6567 34.7489 38.0957 33.6439 38.0957H4.47721C3.37214 38.0957 2.31234 37.6567 1.53094 36.8753C0.749534 36.0939 0.310547 35.0341 0.310547 33.929V4.76237C0.310547 3.6573 0.749534 2.59749 1.53094 1.81609C2.31234 1.03469 3.37214 0.595703 4.47721 0.595703H33.6439ZM32.6022 32.8874V21.8457C32.6022 20.0444 31.8867 18.317 30.613 17.0433C29.3393 15.7696 27.6118 15.054 25.8105 15.054C24.0397 15.054 21.9772 16.1374 20.9772 17.7624V15.4499H15.1647V32.8874H20.9772V22.6165C20.9772 21.0124 22.2689 19.6999 23.873 19.6999C24.6466 19.6999 25.3885 20.0072 25.9354 20.5541C26.4824 21.1011 26.7897 21.843 26.7897 22.6165V32.8874H32.6022ZM8.39388 12.179C9.32214 12.179 10.2124 11.8103 10.8688 11.1539C11.5251 10.4975 11.8939 9.60729 11.8939 8.67904C11.8939 6.74154 10.3314 5.1582 8.39388 5.1582C7.4601 5.1582 6.56456 5.52915 5.90427 6.18943C5.24399 6.84972 4.87305 7.74525 4.87305 8.67904C4.87305 10.6165 6.45638 12.179 8.39388 12.179ZM11.2897 32.8874V15.4499H5.51888V32.8874H11.2897Z" fill="#11619F"/>
</svg>
