<svg width="42" height="43" viewBox="0 0 42 43" fill="none" xmlns="http://www.w3.org/2000/svg">
<path d="M21.0626 0.512207C32.5689 0.512207 41.896 9.83929 41.896 21.3455C41.896 32.8518 32.5689 42.1789 21.0626 42.1789C17.3809 42.1852 13.7638 41.2108 10.5835 39.356L0.237629 42.1789L3.0543 31.8289C1.19796 28.6475 0.222843 25.0289 0.229295 21.3455C0.229295 9.83929 9.55638 0.512207 21.0626 0.512207ZM13.9626 11.5539L13.546 11.5705C13.2766 11.5891 13.0134 11.6599 12.771 11.7789C12.5451 11.907 12.3388 12.067 12.1585 12.2539C11.9085 12.4893 11.7668 12.6935 11.6147 12.8914C10.8441 13.8933 10.4292 15.1233 10.4355 16.3872C10.4397 17.408 10.7064 18.4018 11.123 19.331C11.9751 21.2101 13.3772 23.1997 15.2272 25.0435C15.673 25.4872 16.1105 25.933 16.5814 26.3476C18.8802 28.3714 21.6195 29.8309 24.5814 30.6101L25.7647 30.7914C26.1501 30.8122 26.5355 30.783 26.923 30.7643C27.5297 30.7323 28.122 30.568 28.6585 30.283C28.9311 30.1421 29.1973 29.9892 29.4564 29.8247C29.4564 29.8247 29.5446 29.765 29.7168 29.6372C29.998 29.4289 30.171 29.281 30.4043 29.0372C30.5793 28.8567 30.7251 28.6469 30.8418 28.408C31.0043 28.0685 31.1668 27.4205 31.2335 26.881C31.2835 26.4685 31.2689 26.2435 31.2626 26.1039C31.2543 25.881 31.0689 25.6497 30.8668 25.5518L29.6543 25.008C29.6543 25.008 27.8418 24.2185 26.7335 23.7143C26.6174 23.6638 26.4932 23.6348 26.3668 23.6289C26.2242 23.614 26.0801 23.6299 25.9443 23.6755C25.8084 23.7212 25.6839 23.7955 25.5793 23.8935C25.5689 23.8893 25.4293 24.008 23.923 25.833C23.8366 25.9492 23.7175 26.037 23.581 26.0852C23.4444 26.1335 23.2966 26.14 23.1564 26.1039C23.0206 26.0677 22.8876 26.0217 22.7585 25.9664C22.5001 25.858 22.4105 25.8164 22.2335 25.7414C21.0374 25.2203 19.9302 24.5153 18.9522 23.6518C18.6897 23.4226 18.446 23.1726 18.196 22.931C17.3764 22.146 16.6621 21.258 16.071 20.2893L15.948 20.0914C15.8611 19.9576 15.7898 19.8143 15.7355 19.6643C15.6564 19.358 15.8626 19.1122 15.8626 19.1122C15.8626 19.1122 16.3689 18.558 16.6043 18.258C16.8335 17.9664 17.0272 17.683 17.1522 17.481C17.398 17.0851 17.4751 16.6789 17.346 16.3643C16.7626 14.9393 16.1599 13.5219 15.5376 12.1122C15.4147 11.833 15.0501 11.633 14.7189 11.5935C14.6064 11.5796 14.4939 11.5685 14.3814 11.5601C14.1016 11.5441 13.8212 11.5469 13.5418 11.5685L13.9626 11.5539Z" fill="#11619F"/>
</svg>
