<svg width="360" height="61" viewBox="0 0 360 61" fill="none" xmlns="http://www.w3.org/2000/svg">
<path d="M129.427 17.7172V12.7081C129.427 9.40528 128.089 6.21264 125.692 3.9007C123.406 1.47868 120.173 0.102539 116.828 0.102539H81.3712C78.0263 0.102539 74.7928 1.47869 72.4513 3.84566C69.9985 6.15758 68.6605 9.35025 68.6605 12.7081V24.4328C68.7718 31.3136 74.4025 36.8731 81.3712 36.9834H116.605V46.8915H59.7406V12.7081C59.7406 9.35025 58.7371 6.26768 56.3399 3.9007C53.9427 1.53373 51.2666 0.102539 47.8659 0.102539H12.4095C8.9531 0.102539 6.3329 1.47869 3.93568 3.84566C1.53847 6.21264 0.646484 9.29521 0.646484 12.7081V47.7172C0.646484 51.13 1.53847 54.1025 3.93568 56.4695C6.3329 58.8365 8.9531 60.1025 12.4095 60.1025H116.828C123.741 59.9925 129.315 54.5428 129.427 47.7172V35.9925C129.427 32.7449 128.089 29.6071 125.692 27.3502C123.35 25.0383 120.173 23.7172 116.828 23.7723H81.4827V13.3135H116.605V17.7172H129.427ZM48.5908 24.8731C48.5908 24.9834 48.5349 25.0935 48.5349 25.1484C48.4792 25.1484 48.4236 25.4237 48.4236 25.4237C48.4236 25.4237 48.4236 25.2035 48.3677 25.2035C48.3121 25.2035 48.3677 25.0935 48.3677 25.0935C48.3677 25.0935 48.3121 25.0383 48.3121 25.0935C48.3121 25.1484 48.3121 25.2035 48.3121 25.2035C48.3121 25.3685 48.3121 25.5338 48.2005 25.6988C48.1446 25.7539 48.089 25.864 48.089 25.9192C48.089 26.0292 48.0333 26.1393 47.9218 26.1942C47.8659 26.2494 47.8103 26.3595 47.8103 26.4144C47.8103 26.5245 47.7544 26.5796 47.6987 26.6345C47.5872 26.7448 47.5316 26.9098 47.4757 27.0751C47.42 27.2952 47.3085 27.5705 47.1969 27.7355C47.1413 27.7907 47.0854 27.9008 47.0854 27.9557C46.751 28.4512 46.4165 28.8365 45.9706 29.2217L45.8034 29.4421C45.6918 29.5522 45.5246 29.6622 45.3572 29.7723H45.3016C45.0785 29.8824 44.9113 30.0474 44.6883 30.2126L44.6326 30.2678C44.4095 30.4328 44.2424 30.598 44.0749 30.8182C44.0193 30.8731 43.9636 30.9282 43.9078 30.9834L43.7962 31.0935C43.6849 31.2035 43.629 31.2585 43.5734 31.3685C43.5175 31.4237 43.5175 31.4786 43.4619 31.5338C43.406 31.6438 43.3503 31.6988 43.2947 31.7539L43.2388 31.8088C43.1831 31.9192 43.0716 31.9741 42.9044 31.9741C42.8485 32.1942 42.7929 32.2494 42.5698 32.3043C42.5142 32.3043 42.5142 32.3043 42.5142 32.3595C42.5142 32.5245 42.4583 32.6345 42.4026 32.7449C42.3468 32.7998 42.3468 32.9098 42.2911 32.965C42.2352 33.0199 42.2352 33.13 42.1796 33.1852C42.1796 33.2401 42.1239 33.2952 42.068 33.3502C42.0124 33.4053 41.9565 33.5154 41.9565 33.6255C41.9009 33.7355 41.8452 33.8456 41.7893 33.9557V34.0108C41.7893 34.0658 41.7893 34.0658 41.7893 34.1209V34.1758C41.7893 34.1758 41.7893 34.231 41.8452 34.2859C41.9009 34.3411 41.9565 34.3962 42.0124 34.4512V34.5063C42.068 34.5063 42.1239 34.5612 42.1239 34.6164C42.1239 34.6713 42.1239 34.7814 42.068 34.8365C42.0124 34.9466 41.9565 34.9466 42.0124 35.0567C42.068 35.1668 42.068 35.2217 42.0124 35.332C41.9565 35.3869 41.9565 35.5522 42.0124 35.6071C42.068 35.7172 42.1239 35.8272 42.1239 35.9925C42.1239 36.0474 42.1796 36.1577 42.1796 36.2126C42.1796 36.2678 42.2352 36.3227 42.2911 36.3778C42.5142 36.4879 42.5698 36.5428 42.5142 36.8182C42.5698 36.8182 42.6255 36.8731 42.5698 36.9834C42.5698 37.0383 42.5698 36.9834 42.5698 37.0383C42.5698 37.0935 42.5142 37.0383 42.4583 37.0383V36.9834C42.4583 37.0935 42.4583 37.2035 42.4583 37.3685C42.4583 37.4786 42.5142 37.5887 42.5142 37.6988C42.5142 37.7539 42.4583 37.864 42.4026 37.864C42.4026 37.9192 42.4583 37.9741 42.4583 38.0292C42.4583 38.0842 42.4583 38.1393 42.4583 38.1942V38.2494C42.4583 38.3043 42.4583 38.4144 42.5142 38.4695C42.5698 38.5796 42.5698 38.6897 42.5698 38.7998C42.5698 38.8549 42.5698 38.9098 42.5142 38.9098V38.965C42.4583 39.1852 42.2911 39.4053 42.1239 39.5705L42.068 39.6255C41.9565 39.7907 41.7893 39.9008 41.6221 40.0108C41.455 40.1209 41.2875 40.1758 41.0647 40.1758H41.0088C40.9532 40.1758 40.8973 40.231 40.8416 40.2859L40.7301 40.3411C40.507 40.4512 40.3399 40.6713 40.1727 40.8365L40.1168 40.8915L40.2283 40.9466C40.1727 41.0567 40.0611 41.1116 39.9496 41.1116C39.894 41.1116 39.8381 41.1668 39.7824 41.2217L39.6709 41.3869C39.6152 41.497 39.5037 41.6071 39.3922 41.6622C39.2806 41.7172 39.2806 41.7172 39.2806 41.8272C39.2806 41.9373 39.2806 41.9373 39.3363 41.9925C39.4478 42.0474 39.4478 42.1577 39.4478 42.2678C39.4478 42.3227 39.4478 42.3778 39.5037 42.4328C39.5037 42.3778 39.5593 42.3778 39.6152 42.3778C39.6709 42.3778 39.7265 42.4328 39.6709 42.5428C39.6709 42.5428 39.6709 42.5428 39.6709 42.598C39.6709 42.6529 39.6709 42.763 39.5593 42.763C39.7265 42.8182 39.6709 42.9282 39.6709 42.9834V43.0383C39.6709 43.0935 39.6152 43.1484 39.6709 43.2035C39.7265 43.2585 39.6709 43.3136 39.6709 43.3136C39.5593 43.4786 39.5593 43.6438 39.5593 43.8088C39.5593 43.9192 39.5593 43.9741 39.5037 44.0292L39.3922 44.1393C39.2806 44.2494 39.1691 44.3595 39.0019 44.4144C38.7232 44.4695 38.4445 44.5796 38.2214 44.6897C38.1658 44.6897 38.1099 44.7448 38.0542 44.7998V44.9099C38.0542 45.0199 38.0542 45.13 38.0542 45.1852C38.0542 45.2401 38.0542 45.2401 38.0542 45.2952C38.0542 45.4602 37.9983 45.6255 37.9427 45.7907C37.8868 45.9008 37.8868 46.0108 37.8312 46.1209C37.7755 46.3411 37.664 46.5063 37.4966 46.5612C37.4409 46.6164 37.3294 46.6713 37.2737 46.7265L37.2178 46.7814C37.1063 46.8915 37.0507 47.0015 36.995 47.1116C36.9391 47.1668 36.9391 47.2217 36.8835 47.2768C36.8835 47.2768 36.8276 47.332 36.8276 47.3869C36.6604 47.6622 36.4373 47.8824 36.1586 48.1025C36.103 48.1577 36.0471 48.2126 35.9914 48.2678C35.8799 48.4328 35.7127 48.5428 35.5455 48.6529L35.3781 48.763C35.2666 48.8731 35.0994 48.9834 34.9322 49.0383H34.8763C34.7092 49.1484 34.4863 49.2035 34.3189 49.1484H34.2633C34.2633 49.1484 34.2074 49.2035 34.2633 49.2035V49.2585H34.2074C34.2074 49.2585 34.2074 49.2585 34.1517 49.2585C34.0961 49.2585 34.0961 49.2585 34.0402 49.2585C33.9287 49.2035 33.873 49.2035 33.873 49.3136L33.8171 49.3685C33.7615 49.3685 33.7058 49.3685 33.6499 49.3685C33.5943 49.3136 33.4827 49.3136 33.3712 49.3136C33.3156 49.3136 33.2597 49.3136 33.204 49.2585H33.1482C33.0925 49.2585 33.0925 49.3136 33.0366 49.3136C32.981 49.3136 32.9253 49.3136 32.8694 49.3136C32.8138 49.3136 32.7579 49.3136 32.7022 49.3136C32.6466 49.3136 32.5907 49.3136 32.5351 49.3685C32.4235 49.4786 32.312 49.5338 32.1448 49.4786H32.0333C31.9217 49.4786 31.8102 49.5338 31.6987 49.5887C31.643 49.6438 31.5315 49.6988 31.42 49.6988C31.3084 49.6988 31.1969 49.6438 31.1412 49.5887C31.0856 49.5887 31.0856 49.5338 31.0856 49.5338C31.0856 49.4786 31.0297 49.4786 31.0297 49.4786C30.9741 49.4786 30.9182 49.4237 30.8625 49.3685C30.8625 49.4237 30.8069 49.4237 30.8069 49.4237H30.751C30.6953 49.4237 30.6953 49.3685 30.6953 49.3136C30.6953 49.2585 30.6395 49.3685 30.6395 49.3685C30.6395 49.3685 30.6395 49.5887 30.5838 49.5887C30.5838 49.5887 30.5279 49.2585 30.5279 49.2035C30.5279 49.1484 30.5279 49.0383 30.5279 48.9834C30.5279 48.9282 30.5279 48.8731 30.4723 48.8182C30.4166 48.763 30.4166 48.6529 30.4166 48.598V48.5429C30.4166 48.4879 30.4166 48.4328 30.4723 48.3778C30.5279 48.3778 30.5279 48.3778 30.5838 48.3778H30.6395C30.6395 48.3778 30.6395 48.3778 30.6395 48.3227C30.6395 48.1577 30.5838 47.9925 30.4723 47.8272C30.3051 47.6071 30.1377 47.3869 30.082 47.1116L30.0264 47.0015C29.9148 46.7814 29.8033 46.5612 29.6361 46.3962C29.3572 46.231 29.19 45.9557 29.0228 45.6806V45.6255C28.9113 45.5154 28.9113 45.3502 28.9113 45.1852C28.7997 44.965 28.7441 44.7449 28.7441 44.4695C28.7441 44.3595 28.6882 44.2494 28.6326 44.1393V44.0842C28.5769 43.9741 28.521 43.8088 28.5769 43.6438C28.5769 43.5887 28.5769 43.4786 28.5769 43.4237V43.3136C28.5769 43.2585 28.5769 43.2585 28.5769 43.2035C28.6882 42.9834 28.5769 42.8731 28.4095 42.7081C28.298 42.598 28.2423 42.4879 28.1308 42.3227L27.9636 42.2678C27.8521 42.1025 27.7964 41.9373 27.6849 41.7172C27.5733 41.497 27.4618 41.2768 27.2946 41.0567L27.2387 41.0015C27.0716 40.8365 26.9044 40.6164 26.9044 40.3411C26.9044 40.2859 26.9044 40.231 26.9044 40.1758C26.96 40.0658 26.96 39.9557 26.9044 39.8456C26.8485 39.7907 26.8485 39.6806 26.9044 39.6806C26.9044 39.6806 26.9044 39.6806 26.96 39.6806C26.96 39.6255 26.96 39.6255 26.96 39.5705V39.5154C26.96 39.5154 26.96 39.5154 26.96 39.4602C26.9044 39.3502 26.96 39.2401 27.0716 39.2401V39.1852C27.0716 39.0751 27.1274 38.965 27.1831 38.8549C27.2387 38.6897 27.2387 38.5796 27.2946 38.4144C27.2946 38.3595 27.2946 38.3043 27.3503 38.2494C27.3503 38.1942 27.4062 38.1393 27.4062 38.0842C27.4062 38.0292 27.4062 38.0292 27.4618 37.9741L27.5175 37.9192C27.5733 37.864 27.629 37.8091 27.629 37.7539C27.629 37.6988 27.629 37.6988 27.7964 37.5887C27.9636 37.4786 28.0751 37.3136 28.0751 37.0935C28.0751 37.0383 28.0751 36.9834 28.0751 36.9282V36.8731C28.0751 36.7081 27.629 36.598 27.5733 36.4879C27.5175 36.3778 28.0192 36.1577 26.9044 35.9373C26.9044 35.8824 27.2387 35.7723 27.2387 35.7172C27.2387 35.6622 27.5175 35.497 27.629 35.497C27.7405 35.497 28.0192 35.3869 28.0192 35.3869C27.8521 35.1668 28.0192 34.9466 28.0192 34.7265V34.6164C28.0192 34.5612 27.6849 34.5063 27.629 34.4512C27.5733 34.3962 27.4062 34.3411 27.3503 34.2859C27.2946 34.231 27.2387 34.1758 27.2387 34.1758C27.2387 34.1209 27.1831 34.0108 27.1274 33.9557C27.0716 33.9008 27.0716 33.8456 27.1274 33.7907C27.1274 33.7355 27.0715 33.6806 27.0159 33.6255C26.96 33.5705 26.96 33.5154 26.9044 33.4602C26.9044 33.4053 26.8485 33.3502 26.7928 33.2952C26.6813 33.1852 26.5698 33.0199 26.4582 32.9099L26.1795 32.6345C26.1239 32.5796 26.068 32.5245 26.0123 32.4695C25.9008 32.4144 25.8451 32.3595 25.7893 32.2494V32.1942C25.6777 32.0292 25.5664 31.9192 25.4549 31.6988C25.399 31.5338 25.3434 31.4237 25.2318 31.2585C25.1762 31.2035 25.1762 31.0935 25.1762 31.0383V30.9834H25.2318C25.2877 30.9834 25.3434 30.9834 25.399 30.9834C25.4549 30.9282 25.5105 30.8182 25.5105 30.7081C25.5105 30.6529 25.3434 30.6529 25.3434 30.598C25.3434 30.5428 25.1762 30.6529 25.1762 30.6529V30.598H25.3434C25.3434 30.5428 25.399 30.4879 25.399 30.4328C25.399 30.3778 25.5105 30.3227 25.5664 30.3227C25.6221 30.3227 25.5664 30.2678 25.5664 30.2126C25.5105 30.2126 25.5105 30.1577 25.4549 30.1577C25.4549 30.1025 25.4549 30.0474 25.5105 29.9925L25.6221 29.8272L25.6777 29.7172C25.6777 29.6622 25.6777 29.6622 25.6777 29.6071C25.6777 29.4421 25.6777 29.2768 25.7336 29.1116C25.7336 29.0567 25.7336 28.9466 25.6777 28.9466C25.6221 28.8915 25.5664 28.7814 25.5664 28.7265C25.4549 28.7265 25.399 28.7265 25.2877 28.6713C25.2318 28.6164 25.1762 28.5612 25.1762 28.5063V28.4512C25.1203 28.4512 25.0646 28.4512 25.0088 28.4512L24.9531 28.3962C24.8975 28.4512 24.8416 28.4512 24.7859 28.4512H24.73C24.6744 28.4512 24.6185 28.4512 24.5629 28.5063C24.5072 28.5063 24.4513 28.5612 24.3957 28.5612C24.2841 28.5612 24.2283 28.5612 24.117 28.6164C24.0054 28.6164 23.838 28.6164 23.6708 28.6164C23.5036 28.5612 23.3364 28.4512 23.2806 28.2859C23.2249 28.0658 23.0576 27.7907 22.8904 27.6255C22.7789 27.5154 22.6674 27.4602 22.5001 27.4602C22.1657 27.4602 21.7754 27.4602 21.4409 27.5154H21.3852C21.3294 27.5154 21.2737 27.5154 21.2179 27.5705C21.1622 27.5705 21.1064 27.6255 20.9949 27.6255C20.9949 27.6255 20.9949 27.6255 20.9392 27.6806C20.9392 27.7907 20.8834 27.8456 20.7719 27.8456C20.7719 27.8456 20.7719 27.8456 20.7162 27.8456C20.4932 27.8456 20.2702 27.9008 20.1029 28.0108C19.9357 28.1209 19.7127 28.1758 19.5454 28.1758C19.4897 28.1758 19.4897 28.231 19.4339 28.231C19.3782 28.2859 19.3224 28.2859 19.2667 28.3411C19.211 28.3411 19.0994 28.3411 19.0437 28.2859C18.9322 28.231 18.8764 28.1758 18.765 28.1758C18.7092 28.1758 18.7092 28.1758 18.6534 28.1758H18.542C18.3747 28.1209 18.2075 28.1209 18.0402 28.1209H17.7615C17.5942 28.1209 17.3712 28.1758 17.204 28.1758C17.1482 28.1758 17.0367 28.231 16.981 28.2859C16.9252 28.3411 16.8695 28.3411 16.758 28.3411C16.6465 28.3962 16.535 28.4512 16.4235 28.5063L16.312 28.5612C16.2562 28.6164 16.1447 28.6164 16.089 28.5612C15.9775 28.5063 15.9217 28.4512 15.8102 28.3962C15.643 28.3411 15.4757 28.231 15.3085 28.1209C15.197 28.0658 15.0855 27.9557 15.0298 27.8456C14.974 27.7907 14.9183 27.6806 14.8068 27.6255L14.751 27.5705C14.6953 27.5154 14.6395 27.4602 14.528 27.4602C14.4165 27.4602 14.3608 27.3502 14.3608 27.2952C14.1935 27.2401 14.082 27.13 13.9705 27.0199C13.9148 26.9098 13.8033 26.8549 13.6918 26.8549L13.5803 26.7998L13.4688 26.7448C13.5803 26.5245 13.5245 26.5245 13.4688 26.5245C13.413 26.5245 13.3573 26.4144 13.3573 26.4144V26.3595H13.413H13.4688V26.3043V26.2494C13.4688 26.2494 13.413 26.2494 13.3573 26.2494L13.2458 26.3043L13.3015 26.1942C13.3573 26.1393 13.3015 26.0842 13.3015 26.0842C13.3015 26.0292 13.3015 26.0292 13.3015 25.9741C13.3015 25.9741 13.3015 25.9741 13.3573 25.9192C13.3573 25.864 13.3573 25.8088 13.3573 25.7539C13.3573 25.6988 13.3573 25.6438 13.3573 25.6438V25.5887C13.3015 25.4237 13.2458 25.4237 13.19 25.4237V25.5887V25.9741L13.1343 25.6438V25.4237H13.19C13.19 25.3685 13.19 25.3136 13.1343 25.3136C13.0785 25.2585 13.0228 25.1484 12.9671 25.1484C12.9113 25.1484 12.7998 24.9834 12.7998 24.9282L12.7441 24.8182C12.7441 24.8182 12.6883 24.763 12.7441 24.763C12.7441 24.7081 12.7441 24.6529 12.7441 24.598C12.7441 24.6529 12.6883 24.6529 12.6325 24.6529C12.5768 24.6529 12.5768 24.6529 12.5768 24.598C12.5768 24.5428 12.5211 24.5428 12.5211 24.4879C12.4653 24.4328 12.4095 24.3778 12.4095 24.3227L12.3538 24.3778C12.3538 24.3778 12.2981 24.3778 12.2981 24.4328C12.2423 24.4328 12.2423 24.4879 12.1866 24.4879C12.1308 24.4879 12.0751 24.4879 12.0193 24.4879C11.9636 24.3778 11.9636 24.2126 11.9636 24.1025V23.7723C11.9078 23.7723 11.9078 23.9373 11.8521 23.9373C11.7963 23.9373 11.9636 23.9373 11.9636 23.9373L11.9078 23.9925C11.8521 23.9925 11.8521 23.9373 11.8521 23.9373C11.7406 23.9373 11.7963 23.9373 11.7963 23.9373C11.7963 23.9373 11.4618 23.8824 11.4618 23.7723H11.6848C11.5176 23.7172 11.4061 23.5522 11.4618 23.332C11.4618 23.2217 11.4618 23.1117 11.4618 23.0016L11.6291 22.9466H11.6848L11.7406 22.8915C11.7406 22.8915 11.7963 22.8365 11.8521 22.8915V22.8365H11.7963V22.7814C11.7963 22.7264 11.7963 22.6163 11.7406 22.5613C11.7406 22.5062 11.6848 22.4512 11.6848 22.3961C11.6848 22.3411 11.6848 22.3411 11.6291 22.3411H11.5733C11.5176 22.286 11.5176 22.231 11.5733 22.1759L11.6291 22.1209C11.9078 22.0108 12.1308 21.7356 12.1308 21.4053C12.1308 21.3502 12.1308 21.2952 12.1866 21.2401C12.1866 21.1851 12.1866 21.1851 12.1866 21.1301C12.1866 21.075 12.1866 21.075 12.1866 21.02C12.1866 20.9649 12.2423 20.9649 12.2423 20.9099V20.8548C12.2423 20.8548 12.2981 20.7998 12.3538 20.7998C12.4095 20.7998 12.5211 20.6347 12.5211 20.5796C12.5211 20.5796 12.4653 20.5246 12.4653 20.4695C12.4653 20.4145 12.4653 20.3044 12.4653 20.2493C12.4653 20.1392 12.4653 20.0842 12.4653 19.9741C12.4653 19.9191 12.4653 19.809 12.4653 19.7539L12.4095 19.6989L12.3538 19.809C12.2981 19.7539 12.2981 19.6438 12.3538 19.5888C12.3538 19.5337 12.3538 19.4787 12.3538 19.4787C12.3538 19.4236 12.4095 19.3686 12.4095 19.3686C12.4095 19.3686 12.4653 19.3686 12.4653 19.3135C12.4653 19.2585 12.4653 19.2585 12.4653 19.2034C12.4653 19.2034 12.4653 19.2034 12.4653 19.1484V19.0934C12.4653 19.0383 12.4653 19.0383 12.4095 19.0383C12.3538 19.0383 12.2981 18.9282 12.2981 18.8732C12.2423 18.8732 12.2423 18.8732 12.1866 18.8732C12.1308 18.8732 12.1308 18.8732 12.1308 18.8181C12.1308 18.7631 12.1308 18.7081 12.1308 18.653C12.1308 18.653 12.1308 18.653 12.1308 18.598C12.1308 18.5429 12.1308 18.4879 12.1866 18.4328C12.2423 18.2677 12.2981 18.1025 12.4095 17.9374V17.8824C12.4653 17.8273 12.5211 17.7172 12.6325 17.7172V17.7723L12.6883 17.6622C12.6883 17.6071 12.6883 17.6071 12.7441 17.5521C12.7441 17.497 12.7998 17.442 12.8555 17.3869C12.9113 17.3319 12.9113 17.2768 12.9671 17.1668C12.9671 17.1117 13.0228 17.0567 13.0228 17.0567L13.0785 17.0016C13.1343 16.9466 13.2458 16.8915 13.3015 16.8365C13.3573 16.7814 13.4688 16.7264 13.5803 16.6714C13.636 16.6163 13.6918 16.5613 13.6918 16.4512C13.6918 16.286 13.7475 16.1759 13.859 16.0658C13.859 16.0108 13.9148 16.0108 13.9148 15.9557L13.9705 15.9007V15.8457C14.0263 15.6805 14.1378 15.6255 14.2493 15.6255H14.305L14.4723 15.5154L14.528 15.4603C14.5838 15.2952 14.6953 15.1301 14.8068 14.9649L14.8625 14.9099C14.9183 14.7447 15.0855 14.7447 15.1413 14.7447H15.197C15.4757 14.7447 15.6987 14.6347 15.9217 14.4695C15.9775 14.4145 16.0332 14.4145 16.089 14.3594H16.1447C16.3677 14.2493 16.5907 14.0842 16.7022 13.864L16.8137 13.6989C16.8695 13.6438 16.8695 13.5888 16.8137 13.5888C16.758 13.4787 16.758 13.4236 16.8137 13.3135C16.8137 13.2585 16.8137 13.2585 16.8137 13.2034C16.8137 13.0383 16.8695 12.9282 16.981 12.8181L17.204 12.598C17.204 12.5429 17.2597 12.4879 17.2597 12.4328V12.3778C17.3155 12.2677 17.3712 12.2126 17.427 12.1576C17.4827 12.1576 17.4827 12.1025 17.5385 12.0475C17.7057 11.8824 17.873 11.8273 18.096 11.7723L18.2632 11.7172L18.319 11.6622C18.3747 11.6071 18.4304 11.6071 18.4862 11.6071C18.4304 11.5521 18.4304 11.442 18.4862 11.3869H18.542C18.5977 11.2768 18.6534 11.2218 18.7092 11.1668C18.765 11.0567 18.8207 11.0016 18.8764 10.8915C18.9322 10.7814 19.0437 10.6714 19.0994 10.5613C19.0994 10.5062 19.1552 10.5062 19.211 10.5062H19.3224C19.3782 10.5062 19.4339 10.5062 19.4897 10.5062C19.6012 10.5062 19.6012 10.6163 19.6012 10.6714V10.7264L19.7127 10.8915L19.7684 10.9466C19.8799 10.9466 19.9357 10.9466 20.0472 10.9466H20.2144C20.2702 10.9466 20.3259 10.9466 20.3817 11.0016H20.4374C20.4932 11.0016 20.4932 11.0016 20.4932 10.9466C20.4932 10.8915 20.5489 10.8915 20.6047 10.8915C20.6604 10.8915 20.7162 10.9466 20.7162 11.0016C20.7162 11.1117 20.7719 11.1117 20.8834 11.1117C20.9392 11.1117 20.9949 11.1117 20.9949 11.1117C21.0507 11.1117 21.1064 11.1117 21.1622 11.1117L21.2179 11.0567C21.2737 11.0016 21.2737 11.0016 21.3294 11.0016H21.2737C21.2737 11.0016 21.2737 10.9466 21.3294 10.9466L21.3852 10.8915C21.4409 10.8365 21.4967 10.8915 21.5524 10.8915C21.6082 10.8915 21.5524 10.9466 21.5524 10.9466L21.9427 10.8915C22.1099 10.8365 22.2214 10.7814 22.3887 10.7264C22.3887 10.7264 22.1657 10.7264 22.2214 10.7814C22.2771 10.8365 22.0541 10.7814 22.1099 10.7814H22.0541V10.7264C22.0541 10.7264 22.0541 10.6714 22.1099 10.6714C22.1657 10.6714 22.1099 10.6714 22.1657 10.6714C22.1657 10.6714 22.2214 10.6163 22.2771 10.6163C22.3329 10.6163 22.3329 10.5613 22.3887 10.5613L22.4444 10.5062C22.5001 10.4512 22.5559 10.4512 22.6117 10.5062C22.7231 10.5062 22.7789 10.5062 22.8904 10.5062C23.0019 10.5062 23.1134 10.5062 23.2806 10.5062C23.3364 10.3961 23.3921 10.3411 23.5036 10.3961H23.5594C23.6151 10.3961 23.6708 10.3961 23.7267 10.3961H23.7824C23.9495 10.3961 24.1726 10.3961 24.3398 10.4512C24.3957 10.4512 24.3957 10.4512 24.3957 10.4512C24.3957 10.4512 24.4513 10.4512 24.4513 10.5062L24.5072 10.5613H24.5629C24.5629 10.5062 24.6185 10.5062 24.6744 10.5062C24.73 10.5062 24.7859 10.5062 24.7859 10.5062H24.8416L24.8975 10.4512L24.9531 10.3961C25.0088 10.3411 25.1203 10.3961 25.1762 10.4512H25.2318H25.3434C25.3434 10.3961 25.3434 10.3961 25.399 10.3961C25.4549 10.3961 25.5105 10.3961 25.5664 10.3961H25.6221C25.6777 10.3961 25.7336 10.3961 25.7893 10.3961C25.7893 10.3961 25.8451 10.3961 25.8451 10.4512C25.9008 10.4512 25.9567 10.4512 26.0123 10.4512C26.1239 10.4512 26.2354 10.4512 26.291 10.3961C26.4582 10.286 26.6813 10.286 26.8485 10.3411C26.96 10.3411 26.9044 10.4512 26.9044 10.5062L26.96 10.5613C26.96 10.5613 26.96 10.7814 26.96 10.8365C26.96 10.8915 27.0159 11.0567 27.0716 11.0567C27.0159 10.9466 27.0159 10.8365 27.0716 10.7264C27.0716 10.7264 27.1274 10.5613 27.1831 10.6163C27.2387 10.6714 27.1831 10.5613 27.2387 10.5613C27.2946 10.5613 27.3503 10.5613 27.3503 10.6163C27.4062 10.6714 27.3503 10.7814 27.2946 10.8365L27.2387 10.8915C27.1831 10.9466 27.1274 11.0016 27.0716 11.0567V11.1117C27.0716 11.1668 27.0716 11.1668 27.1274 11.1668C27.2387 11.2218 27.2946 11.3319 27.2946 11.442C27.2946 11.5521 27.2946 11.6622 27.2387 11.7723C27.1274 11.9374 27.0159 12.0475 26.8485 12.1025C26.7928 12.1576 26.7928 12.1576 26.7928 12.1576C26.7928 12.1576 26.8485 12.2677 26.9044 12.2677V12.2126C26.9044 12.1576 27.0159 12.1025 27.0716 12.1025C27.1274 12.1025 27.1831 12.1576 27.1831 12.2677C27.1831 12.3227 27.1831 12.3778 27.1831 12.4328C27.1831 12.4879 27.1831 12.5429 27.1831 12.5429C27.1831 12.598 27.2387 12.598 27.3503 12.598H27.4062C27.5175 12.598 27.5733 12.653 27.6849 12.7081C27.7964 12.7631 27.9077 12.8181 28.0192 12.7631C28.1308 12.7081 28.2423 12.7081 28.3538 12.7631C28.4095 12.7631 28.4654 12.7631 28.521 12.7631C28.6326 12.7631 28.6882 12.8181 28.7997 12.8732C28.8556 12.9282 28.9113 12.9282 28.9672 12.9282H29.0228H29.1343C29.3015 12.9282 29.3572 13.0934 29.3572 13.1484C29.4131 13.4787 29.5246 13.5888 29.859 13.5888C30.082 13.5888 30.3607 13.6989 30.5838 13.809C30.6953 13.864 30.8069 13.9191 30.9182 14.0291C31.1412 14.1943 31.2528 14.1392 31.4758 13.9191C31.5315 13.809 31.5871 13.7539 31.4758 13.6438C31.3643 13.4236 31.42 13.1484 31.643 13.0383C31.8102 12.9282 31.9774 12.8181 32.2005 12.7631C32.3676 12.7081 32.5907 12.7081 32.7579 12.7081C32.8138 12.7081 32.8694 12.7631 32.9253 12.7631C32.981 12.7631 33.0366 12.8181 33.0925 12.8181C33.204 12.8181 33.204 12.9282 33.204 12.9282C33.204 12.9833 33.2597 13.0383 33.3156 13.0383C33.4269 13.0383 33.5384 13.0383 33.5943 13.0934C33.6499 13.0934 33.7058 13.0934 33.7615 13.0934C33.9845 13.0383 34.0402 13.0934 34.1517 13.3135C34.1517 13.3686 34.1517 13.3686 34.2633 13.3686C34.3748 13.3135 34.542 13.3135 34.6535 13.3686H34.8207C34.9322 13.3686 35.0994 13.4236 35.2109 13.4787C35.2666 13.4787 35.3225 13.5337 35.3781 13.5337C35.434 13.5337 35.4897 13.5888 35.5455 13.5888C35.6012 13.5888 35.6012 13.5888 35.6568 13.5888H35.7684C35.8799 13.5888 35.9914 13.6438 36.0471 13.6989C36.1586 13.7539 36.2145 13.6989 36.326 13.5888L36.3817 13.5337C36.5489 13.4236 36.7719 13.3135 36.995 13.2585C37.0507 13.2585 37.1063 13.2585 37.1622 13.2585H37.2178C37.2737 13.3135 37.3294 13.3135 37.3853 13.2585C37.4409 13.2585 37.4409 13.2585 37.4966 13.2585C37.4966 13.2585 37.5524 13.2585 37.5524 13.3135C37.6081 13.3686 37.6081 13.3686 37.664 13.4236C37.7196 13.4236 37.7755 13.4787 37.8312 13.5337C37.8312 13.5337 37.8868 13.5337 37.8868 13.4787L37.9427 13.4236C37.9983 13.3686 38.1099 13.3686 38.2214 13.4236C38.2214 13.4236 38.2771 13.4236 38.3329 13.4236C38.3886 13.4236 38.5001 13.3686 38.5001 13.3686C38.5001 13.3686 38.7232 13.3686 38.6673 13.3686C38.6117 13.3686 38.5558 13.3686 38.5001 13.4236C38.4445 13.4787 38.6673 13.4787 38.6117 13.4787C38.5558 13.4787 38.7788 13.4787 38.7788 13.4787C38.7788 13.5888 39.0576 13.7539 39.1134 13.864C39.3363 14.0842 39.4478 14.4145 39.4478 14.6897V14.7447C38.8904 14.9099 39.225 15.075 39.225 15.2401C39.225 15.3502 39.1691 15.4053 39.0576 15.4603C39.0019 15.5154 38.8904 15.5154 38.7788 15.4603C38.7788 15.5154 38.7788 15.5154 38.7788 15.5704C38.8347 15.6255 38.8904 15.6805 38.8904 15.7356C38.8904 15.8457 38.946 15.9007 39.0019 16.0108C39.0576 16.0658 39.0576 16.1209 39.0576 16.1759C39.1691 16.286 39.2806 16.4512 39.3363 16.6163C39.3922 16.6714 39.4478 16.7814 39.5037 16.8365L39.5593 16.8915C39.6152 17.0567 39.7265 17.1668 39.8939 17.2218C39.9496 17.2218 39.9496 17.2768 39.9496 17.2768C40.0055 17.3319 39.9496 17.3869 39.9496 17.442C39.7265 17.442 39.5593 17.442 39.3363 17.442C39.3363 17.497 38.8347 17.497 38.8347 17.5521V17.6071C38.8347 17.6622 39.3363 17.6622 39.3363 17.7172C39.3363 17.7723 39.6709 17.8824 39.7265 17.8824C39.7824 17.8824 39.8381 17.8824 39.8939 17.8824L39.6709 18.2677C39.7824 18.3227 39.894 18.3778 40.0055 18.4328C40.0611 18.4879 40.1168 18.5429 40.2283 18.5429C40.2842 18.5429 40.3399 18.653 40.3399 18.7081C40.3399 18.8732 40.3955 18.9833 40.507 19.0934C40.5629 19.1484 40.5629 19.1484 40.5629 19.2034C40.5629 19.3686 40.5629 19.5337 40.6186 19.6989C40.6186 19.809 40.6744 19.9191 40.6744 19.9741C40.6744 20.0842 40.7301 20.1392 40.7301 20.2493C40.7301 20.2493 40.7301 20.3044 40.7301 20.3594C40.7301 20.4145 40.7858 20.4145 40.8416 20.4145C40.9532 20.4145 41.0647 20.5246 41.1204 20.5796C41.1204 20.6347 41.176 20.6897 41.2319 20.6897C41.455 20.7998 41.6221 21.02 41.6778 21.2952C41.7337 21.4603 41.7893 21.6805 41.8452 21.8457C41.8452 21.9007 41.9009 21.9557 41.9565 22.0108C42.0124 22.0658 42.0124 22.1209 42.068 22.1759C42.068 22.231 42.1239 22.231 42.1796 22.231C42.2911 22.231 42.4583 22.286 42.5142 22.3961C42.5698 22.3961 42.6255 22.4512 42.6814 22.5062C42.737 22.5613 42.7929 22.5613 42.9044 22.6163C43.0157 22.6714 43.1273 22.7264 43.1831 22.8915C43.2388 22.9466 43.2947 23.0016 43.3503 23.0567C43.406 23.1117 43.4619 23.1117 43.5175 23.2217V23.2768C43.5734 23.2768 43.5734 23.332 43.5734 23.3869C43.629 23.497 43.6849 23.5522 43.7962 23.5522C44.0193 23.6622 44.1308 23.8824 44.1865 24.1025C44.1865 24.1577 44.1308 24.2678 44.0749 24.2678C44.0193 24.2678 44.0193 24.2678 44.0193 24.3227H44.0749C44.1865 24.3778 44.2424 24.4328 44.298 24.5428V24.598C44.4095 24.763 44.5767 24.8731 44.7441 24.9282C44.8554 24.9282 45.0229 24.9282 45.1344 24.8182C45.19 24.763 45.3016 24.7081 45.3572 24.7081C45.4688 24.6529 45.5803 24.7081 45.6918 24.763C45.7475 24.8182 45.8034 24.763 45.859 24.763C45.9147 24.763 46.0262 24.6529 46.0821 24.6529L46.1936 24.5428C46.2493 24.4879 46.3049 24.4879 46.3608 24.5428C46.4723 24.598 46.5839 24.5428 46.6395 24.4879C46.751 24.3778 46.9182 24.3778 47.0298 24.4328C47.1413 24.4879 47.2528 24.4879 47.3644 24.4328C47.4757 24.3778 47.5316 24.3778 47.6431 24.3227C47.7544 24.3227 47.8103 24.2678 47.9218 24.2126C47.9775 24.1577 48.0333 24.0474 48.1446 24.0474C48.2562 24.0474 48.3121 24.0474 48.4236 24.1025C48.4792 24.1577 48.5349 24.2678 48.4792 24.3778C48.4236 24.4879 48.4236 24.598 48.4792 24.7081C48.4792 24.763 48.4792 24.8182 48.4792 24.8731C48.5349 24.8731 48.5349 24.8731 48.5908 24.9282C48.5349 24.8182 48.5908 24.8731 48.5908 24.8731Z" fill="#F2994A"/>
<path d="M150.467 44.1025H146.907V14.8225H150.467V44.1025ZM166.375 31.9425L174.975 44.1025H170.695L164.015 34.5825L160.415 38.5825V44.1025H157.015V13.6625H160.415V34.2225L169.935 23.3425H174.095L166.375 31.9425ZM175.854 33.7025C175.854 31.6225 176.307 29.7559 177.214 28.1025C178.147 26.4492 179.374 25.1692 180.894 24.2625C182.414 23.3292 184.054 22.8625 185.814 22.8625C187.574 22.8625 189.214 23.3159 190.734 24.2225C192.254 25.1292 193.467 26.4092 194.374 28.0625C195.281 29.7159 195.734 31.5959 195.734 33.7025C195.734 35.8092 195.281 37.6892 194.374 39.3425C193.467 40.9692 192.254 42.2492 190.734 43.1825C189.214 44.0892 187.574 44.5425 185.814 44.5425C184.054 44.5425 182.401 44.0892 180.854 43.1825C179.334 42.2492 178.121 40.9692 177.214 39.3425C176.307 37.6892 175.854 35.8092 175.854 33.7025ZM179.454 33.7025C179.454 35.2759 179.734 36.6359 180.294 37.7825C180.854 38.9292 181.614 39.8092 182.574 40.4225C183.534 41.0359 184.614 41.3425 185.814 41.3425C187.014 41.3425 188.094 41.0359 189.054 40.4225C190.014 39.8092 190.761 38.9292 191.294 37.7825C191.854 36.6359 192.134 35.2759 192.134 33.7025C192.134 32.1292 191.854 30.7692 191.294 29.6225C190.761 28.4759 190.014 27.5959 189.054 26.9825C188.094 26.3692 187.014 26.0625 185.814 26.0625C184.614 26.0625 183.534 26.3692 182.574 26.9825C181.614 27.5959 180.854 28.4759 180.294 29.6225C179.734 30.7692 179.454 32.1292 179.454 33.7025ZM211.81 43.4225C210.717 44.1692 209.317 44.5425 207.61 44.5425C203.424 44.5425 201.33 42.1559 201.33 37.3825V26.2625H197.89V23.3025H201.33V17.5025H204.73V23.3025H210.77V26.2625H204.73V36.9825C204.73 39.8892 205.824 41.3425 208.01 41.3425C208.97 41.3425 209.864 41.1025 210.69 40.6225L211.81 43.4225ZM242.878 30.5425H229.998V40.9425H244.838V44.1025H226.438V14.7825H244.398V17.9425H229.998V27.3825H242.878V30.5425ZM259.226 31.9425L267.826 44.1025H263.546L256.866 34.5825L253.266 38.5825V44.1025H249.866V13.6625H253.266V34.2225L262.786 23.3425H266.946L259.226 31.9425ZM281.004 22.8625C282.577 22.8625 284.057 23.3025 285.444 24.1825C286.857 25.0359 287.991 26.2892 288.844 27.9425C289.697 29.5692 290.124 31.4892 290.124 33.7025C290.124 35.9425 289.697 37.8892 288.844 39.5425C287.991 41.1692 286.857 42.4092 285.444 43.2625C284.057 44.1159 282.577 44.5425 281.004 44.5425C279.671 44.5425 278.391 44.2359 277.164 43.6225C275.964 42.9825 274.977 42.0492 274.204 40.8225V53.3825H270.804V23.3425H273.804C273.857 24.6759 273.937 25.8492 274.044 26.8625C274.791 25.5292 275.777 24.5292 277.004 23.8625C278.257 23.1959 279.591 22.8625 281.004 22.8625ZM280.564 41.3425C282.377 41.3425 283.831 40.6759 284.924 39.3425C286.017 38.0092 286.564 36.1292 286.564 33.7025C286.564 31.2759 286.017 29.3959 284.924 28.0625C283.831 26.7292 282.377 26.0625 280.564 26.0625C279.471 26.0625 278.444 26.3159 277.484 26.8225C276.524 27.3292 275.737 28.1559 275.124 29.3025C274.511 30.4492 274.204 31.9159 274.204 33.7025C274.204 35.4892 274.511 36.9559 275.124 38.1025C275.737 39.2492 276.524 40.0759 277.484 40.5825C278.444 41.0892 279.471 41.3425 280.564 41.3425ZM303.741 22.8625C305.527 22.8625 307.087 23.2892 308.421 24.1425C309.781 24.9692 310.821 26.1025 311.541 27.5425C312.261 28.9825 312.621 30.5825 312.621 32.3425C312.621 33.0892 312.567 33.7692 312.461 34.3825H297.501C297.634 36.7559 298.314 38.5292 299.541 39.7025C300.767 40.8492 302.314 41.4225 304.181 41.4225C306.501 41.4225 308.181 40.4892 309.221 38.6225L311.821 40.1025C311.287 41.5159 310.287 42.6092 308.821 43.3825C307.381 44.1559 305.767 44.5425 303.981 44.5425C302.114 44.5425 300.407 44.1159 298.861 43.2625C297.341 42.4092 296.127 41.1692 295.221 39.5425C294.341 37.8892 293.901 35.9159 293.901 33.6225C293.901 31.4092 294.341 29.4892 295.221 27.8625C296.127 26.2359 297.327 24.9959 298.821 24.1425C300.314 23.2892 301.954 22.8625 303.741 22.8625ZM303.621 25.9825C302.127 25.9825 300.821 26.4625 299.701 27.4225C298.607 28.3825 297.914 29.7825 297.621 31.6225H308.941C308.861 29.8359 308.341 28.4492 307.381 27.4625C306.421 26.4759 305.167 25.9825 303.621 25.9825ZM327.016 22.8625C329.229 22.8625 331.002 23.5959 332.336 25.0625C333.669 26.5292 334.336 28.6092 334.336 31.3025V44.1025H330.936V32.2625C330.936 30.2892 330.536 28.7692 329.736 27.7025C328.962 26.6359 327.802 26.1025 326.256 26.1025C325.242 26.1025 324.282 26.3425 323.376 26.8225C322.496 27.2759 321.776 27.9692 321.216 28.9025C320.656 29.8092 320.376 30.9425 320.376 32.3025V44.1025H316.976V23.3425H319.976C320.029 24.6759 320.109 25.8225 320.216 26.7825C320.909 25.5025 321.842 24.5292 323.016 23.8625C324.216 23.1959 325.549 22.8625 327.016 22.8625ZM348.819 22.8625C350.606 22.8625 352.166 23.2892 353.499 24.1425C354.859 24.9692 355.899 26.1025 356.619 27.5425C357.339 28.9825 357.699 30.5825 357.699 32.3425C357.699 33.0892 357.646 33.7692 357.539 34.3825H342.579C342.712 36.7559 343.392 38.5292 344.619 39.7025C345.846 40.8492 347.392 41.4225 349.259 41.4225C351.579 41.4225 353.259 40.4892 354.299 38.6225L356.899 40.1025C356.366 41.5159 355.366 42.6092 353.899 43.3825C352.459 44.1559 350.846 44.5425 349.059 44.5425C347.192 44.5425 345.486 44.1159 343.939 43.2625C342.419 42.4092 341.206 41.1692 340.299 39.5425C339.419 37.8892 338.979 35.9159 338.979 33.6225C338.979 31.4092 339.419 29.4892 340.299 27.8625C341.206 26.2359 342.406 24.9959 343.899 24.1425C345.392 23.2892 347.032 22.8625 348.819 22.8625ZM348.699 25.9825C347.206 25.9825 345.899 26.4625 344.779 27.4225C343.686 28.3825 342.992 29.7825 342.699 31.6225H354.019C353.939 29.8359 353.419 28.4492 352.459 27.4625C351.499 26.4759 350.246 25.9825 348.699 25.9825Z" fill="#F2994A"/>
</svg>
