<svg width="217" height="63" viewBox="0 0 217 63" fill="none" xmlns="http://www.w3.org/2000/svg">
<mask id="mask0_156_1371" style="mask-type:luminance" maskUnits="userSpaceOnUse" x="0" y="1" width="216" height="61">
<path d="M215.742 1.10254H0V61.8975H215.742V1.10254Z" fill="white"/>
</mask>
<g mask="url(#mask0_156_1371)">
<path d="M56.6087 4.10498H73.4341C80.9819 4.10498 87.429 8.98748 87.429 17.8075C87.429 26.6275 80.9819 31.51 73.4341 31.51H63.2131V46.7875H56.6087V4.10498ZM72.8051 25.6825C77.6797 25.6825 80.8246 22.5325 80.8246 17.8075C80.8246 13.0825 77.6797 9.93248 72.8051 9.93248H63.0558V25.6825H72.8051Z" fill="#0045F6"/>
<path d="M89.7902 16.6854H96.2373V20.7804C98.7532 17.4729 102.684 16.2129 107.874 16.2129V22.9854C106.458 22.5129 105.358 22.3554 103.942 22.3554C100.011 22.3554 96.2373 25.5054 96.2373 31.6479V46.7679H89.7902V16.6854Z" fill="#0045F6"/>
<path d="M107.714 31.6526C107.714 22.8326 114.947 15.7451 123.753 15.7451C132.559 15.7451 139.792 22.8326 139.792 31.6526C139.792 40.4726 132.559 47.5601 123.753 47.5601C114.79 47.5601 107.714 40.4726 107.714 31.6526ZM133.03 31.6526C133.03 25.9826 128.942 21.7301 123.596 21.7301C118.249 21.7301 114.318 25.9826 114.318 31.6526C114.318 37.1651 118.406 41.5751 123.596 41.4176C128.942 41.5751 133.03 37.1651 133.03 31.6526Z" fill="#0045F6"/>
<path d="M142.775 16.6854H149.222V20.9379C151.738 18.1029 155.04 16.2129 160.229 16.2129C168.406 16.2129 174.539 22.9854 174.539 31.8054C174.539 40.4679 168.406 47.2404 160.229 47.2404C154.883 47.2404 151.738 45.3504 149.222 42.5154V62.0454H142.775V16.6854ZM168.249 31.6479C168.249 25.9779 164.161 21.7254 158.814 21.7254C153.468 21.7254 149.222 25.9779 149.222 31.6479C149.222 37.3179 153.31 41.5704 158.814 41.5704C164.161 41.5704 168.249 37.3179 168.249 31.6479Z" fill="#0045F6"/>
<path d="M206.776 31.1801C206.776 31.9676 206.776 32.5976 206.776 33.3851H181.774C182.403 39.0551 186.648 42.2051 191.68 42.2051C195.454 42.2051 198.599 40.6301 200.643 38.1101L204.574 41.4176C201.744 45.3551 196.869 47.4026 191.68 47.4026C182.717 47.4026 175.956 40.4726 175.956 31.6526C175.956 22.6751 182.717 15.7451 191.68 15.7451C200.329 15.7451 206.619 21.7301 206.776 31.1801ZM181.931 29.1326H201.115C200.014 23.7776 196.555 20.7851 191.523 20.7851C186.491 20.7851 182.717 24.0926 181.931 29.1326Z" fill="#0045F6"/>
<path d="M215.737 1.10254H209.605V46.7776H215.737V1.10254Z" fill="#0045F6"/>
<path d="M33.808 4.40039V15.8979L11.3217 28.8129L0 22.3554V11.0154L11.3217 17.4729L33.808 4.40039Z" fill="#0045F6"/>
<path d="M44.9774 22.3525V33.6925L22.4911 46.765L11.3267 40.15V28.81L22.4911 35.425L44.9774 22.3525Z" fill="#0045F6"/>
</g>
</svg>
