<svg width="252" height="71" viewBox="0 0 252 71" fill="none" xmlns="http://www.w3.org/2000/svg">
<path fill-rule="evenodd" clip-rule="evenodd" d="M228.03 60.4808C220.575 61.0725 214.382 56.0879 214.382 47.3873C214.382 38.6961 220.562 33.8104 228.007 34.3789C243.417 35.5542 243.436 59.259 228.03 60.4808ZM251.793 27.7423H251.789V26.832C251.789 26.3513 251.4 25.9617 250.919 25.9617H241.971C241.491 25.9617 241.102 26.3513 241.102 26.832V27.7111L241.106 27.7156H241.102V27.9293C241.057 28.3542 240.56 28.4887 240.261 28.1864C238.509 26.4174 232.718 24.7805 227.439 24.7805C214.824 24.6927 204.925 32.4903 204.925 47.383C204.925 62.5385 214.386 70.4228 227.176 70.3365C231.94 70.2491 237.407 69.6542 241.102 64.7288V69.6129C241.102 70.0932 241.491 70.4828 241.971 70.4828H250.919C251.4 70.4828 251.789 70.0932 251.789 69.6129V67.9533L251.793 66.4752V27.7423Z" fill="#F16521"/>
<path fill-rule="evenodd" clip-rule="evenodd" d="M44.9122 51.237C45.6129 56.581 50.2563 60.4363 57.7898 60.4363C61.7321 60.4363 66.9007 58.9461 69.3536 56.4065L76.1869 63.1515C71.6316 67.8822 64.1848 70.16 57.6143 70.16C42.7215 70.16 33.8733 60.9612 33.8733 47.1195C33.8733 33.9789 42.8095 24.5176 56.8262 24.5176C71.2814 24.5176 80.3041 33.4535 78.64 51.237H44.9122ZM68.3919 42.3777C67.6915 36.7713 63.3114 33.9679 57.1786 33.9679C51.3967 33.9679 46.6657 36.7713 45.089 42.3777H68.3919Z" fill="#F16521"/>
<mask id="mask0_156_1314" style="mask-type:alpha" maskUnits="userSpaceOnUse" x="1" y="26" width="35" height="45">
<path fill-rule="evenodd" clip-rule="evenodd" d="M18.7629 70.5065H1.7675V26.1777H35.7584V70.5065H18.7629Z" fill="white"/>
</mask>
<g mask="url(#mask0_156_1314)">
<path fill-rule="evenodd" clip-rule="evenodd" d="M24.6328 26.1777C20.2531 26.1777 15.7841 26.9665 12.4558 32.3104V28.0859C12.4558 27.6055 12.0662 27.2161 11.5854 27.2161H2.63825C2.15751 27.2161 1.7675 27.6055 1.7675 28.0859V30.6568V32.2605V33.6831V37.8781V61.8834V64.1395L1.77775 64.1509L1.7675 64.1567V67.3225V69.6358C1.7675 70.1166 2.15751 70.5065 2.63825 70.5065H11.5854C12.0662 70.5065 12.4558 70.1166 12.4558 69.6358V65.1301C12.4558 64.9117 12.4811 64.7047 12.4558 64.4941V57.7906V47.7286C12.4558 39.7575 17.624 36.7783 23.231 36.7783C26.7349 36.7783 28.75 37.7417 30.9407 39.5812L35.7584 30.2953C33.3934 27.9299 29.1 26.1777 24.6328 26.1777Z" fill="#F16521"/>
</g>
<mask id="mask1_156_1314" style="mask-type:alpha" maskUnits="userSpaceOnUse" x="157" y="27" width="11" height="44">
<path fill-rule="evenodd" clip-rule="evenodd" d="M157.124 70.5104H167.82V27.146H157.124V70.5104Z" fill="white"/>
</mask>
<g mask="url(#mask1_156_1314)">
<path fill-rule="evenodd" clip-rule="evenodd" d="M167.82 65.0699V47.3829H167.816V28.0159C167.816 27.5354 167.426 27.146 166.945 27.146H157.998C157.518 27.146 157.127 27.5354 157.127 28.0159V56.907C157.127 56.9223 157.132 56.9367 157.132 56.9518V64.1437L157.147 64.1609H157.127V65.0847C157.126 65.1099 157.124 65.1362 157.124 65.1624C157.124 65.1882 157.126 65.214 157.127 65.2401V69.6399C157.127 70.1208 157.518 70.5106 157.998 70.5106H166.945C167.426 70.5106 167.816 70.1208 167.816 69.6399V65.2418C167.816 65.2149 167.82 65.1887 167.82 65.1624C167.82 65.1362 167.817 65.1099 167.816 65.0843V65.0703L167.82 65.0699Z" fill="#F16521"/>
</g>
<path fill-rule="evenodd" clip-rule="evenodd" d="M132.375 26.6932C126.768 26.6932 121.775 28.4447 117.92 34.5776C115.467 28.6199 110.298 26.5181 105.129 26.5181C101.012 26.5181 96.0184 28.0945 93.7412 32.475V28.0758C93.7412 27.5949 93.3513 27.2055 92.8705 27.2055H83.9235C83.4425 27.2055 83.053 27.5949 83.053 28.0758V33.5849V37.8677V59.8164V64.1291V69.6086C83.053 70.089 83.4425 70.4789 83.9235 70.4789H92.8705C93.3513 70.4789 93.7412 70.089 93.7412 69.6086V64.1291V47.3684C93.7412 41.6736 97.1578 36.505 102.939 36.505C108.809 36.505 111.788 41.6736 111.788 47.3684V64.1291L111.815 64.1621V69.6256C111.815 70.1063 112.205 70.4959 112.685 70.4959H121.632C122.113 70.4959 122.503 70.1063 122.503 69.6256V57.7802H122.475V47.3684C122.475 41.6736 126.067 36.6801 131.849 36.6801C137.631 36.6801 139.996 41.4984 139.996 47.1926V59.8164L139.996 69.6086C139.996 70.089 140.386 70.4789 140.866 70.4789H149.813C150.294 70.4789 150.684 70.089 150.684 69.6086V64.1291V59.8164V47.1926C150.684 34.2272 144.639 26.6932 132.375 26.6932Z" fill="#F16521"/>
<path fill-rule="evenodd" clip-rule="evenodd" d="M122.432 18.2181C120.283 20.3887 116.798 20.3887 114.649 18.2181C112.5 16.0475 112.5 12.5281 114.649 10.3575C116.798 8.18684 120.283 8.18684 122.432 10.3575C124.581 12.5281 124.581 16.0475 122.432 18.2181Z" fill="#F16521"/>
<path fill-rule="evenodd" clip-rule="evenodd" d="M144.592 17.6786C141.742 20.5577 137.12 20.5577 134.27 17.6786C131.419 14.7996 131.419 10.1317 134.27 7.25273C137.12 4.37409 141.742 4.37409 144.592 7.25273C147.442 10.1317 147.442 14.7996 144.592 17.6786Z" fill="#F16521"/>
<path fill-rule="evenodd" clip-rule="evenodd" d="M169.695 16.959C165.894 20.7987 159.73 20.7987 155.928 16.959C152.126 13.1192 152.126 6.89332 155.928 3.05317C159.73 -0.786604 165.894 -0.786604 169.695 3.05317C173.498 6.89332 173.498 13.1192 169.695 16.959Z" fill="#1CA78B"/>
<path fill-rule="evenodd" clip-rule="evenodd" d="M202.422 58.6961C202.422 58.6961 200.45 59.3416 199.188 59.6592C197.927 59.9784 196.848 60.1381 195.955 60.1381C195.271 60.1381 194.627 60.0583 194.023 59.8993C193.417 59.7392 192.88 59.4481 192.406 59.0232C191.933 58.5985 191.551 58.0143 191.262 57.2705C190.973 56.5274 190.829 55.5713 190.829 54.403V31.175H201.822C202.298 31.175 202.684 30.7811 202.684 30.2959V21.259C202.684 20.7735 202.298 20.3796 201.822 20.3796H190.829V7.12158H187.122C186.281 11.9539 184.717 15.8831 182.43 18.9096C180.143 21.9371 177.159 24.2205 173.479 25.7599V30.9375H179.473V53.6065C179.473 56.4741 179.722 58.9707 180.222 61.0931C180.721 63.2178 181.523 64.9704 182.627 66.3508C183.731 67.7323 185.203 68.754 187.043 69.4174C188.883 70.0802 192.391 70.4664 195.072 70.4131C201.426 70.2872 203.985 68.5527 205.143 67.8076L202.422 58.6961Z" fill="#F16521"/>
</svg>
