<svg id="svg" version="1.1" xmlns="http://www.w3.org/2000/svg" xmlns:xlink="http://www.w3.org/1999/xlink" width="400" height="168.93203883495147" viewBox="0, 0, 400,168.93203883495147"><g id="svgg"><path id="path0" d="M39.713 0.253 C 39.713 0.439,39.520 0.507,38.995 0.508 C 37.037 0.512,34.717 1.246,34.402 1.963 C 34.270 2.263,34.010 2.348,32.753 2.502 C 30.907 2.730,30.416 2.958,30.037 3.762 C 29.803 4.259,29.641 4.396,29.276 4.405 C 27.708 4.441,26.193 5.097,26.193 5.738 C 26.193 6.143,25.850 6.422,25.351 6.422 C 24.793 6.422,23.142 7.480,22.860 8.018 C 22.698 8.326,22.452 8.458,21.871 8.545 C 20.998 8.676,20.279 9.265,20.278 9.851 C 20.277 10.147,20.112 10.276,19.475 10.477 C 18.782 10.697,18.620 10.839,18.275 11.534 C 17.983 12.123,17.779 12.336,17.510 12.336 C 16.922 12.336,16.416 12.804,16.221 13.525 C 16.091 14.010,15.951 14.195,15.718 14.195 C 14.883 14.195,14.324 14.768,14.162 15.790 C 14.128 16.003,13.904 16.170,13.519 16.270 C 12.707 16.480,12.541 16.652,12.383 17.450 C 12.271 18.014,12.154 18.170,11.742 18.302 C 10.997 18.541,10.702 18.865,10.501 19.664 C 10.358 20.230,10.201 20.437,9.742 20.655 C 9.149 20.938,8.281 22.694,8.281 23.612 C 8.281 23.899,8.151 24.006,7.695 24.091 C 6.951 24.231,6.830 24.386,6.512 25.605 C 6.370 26.154,6.141 26.665,6.005 26.741 C 5.457 27.048,4.551 28.694,4.447 29.570 C 4.369 30.227,4.247 30.507,3.953 30.699 C 3.738 30.840,3.510 31.118,3.447 31.317 C 3.384 31.516,3.184 31.879,3.003 32.124 C 2.783 32.422,2.609 33.092,2.478 34.155 C 2.286 35.708,2.271 35.743,1.813 35.795 C 1.015 35.887,0.512 37.349,0.508 39.586 C 0.507 40.186,0.443 40.389,0.253 40.389 C 0.030 40.389,0.000 42.576,0.000 59.062 C 0.000 75.548,0.030 77.736,0.253 77.736 C 0.455 77.736,0.507 77.985,0.508 78.961 C 0.509 80.711,0.775 82.131,1.178 82.543 C 2.137 83.520,2.351 83.939,2.467 85.065 C 2.530 85.686,2.648 86.235,2.728 86.284 C 2.808 86.334,2.873 86.621,2.873 86.924 C 2.873 87.529,3.339 88.142,3.987 88.388 C 4.305 88.509,4.394 88.666,4.394 89.110 C 4.394 90.910,4.919 92.172,5.743 92.353 C 6.137 92.439,6.239 92.581,6.389 93.249 C 6.769 94.952,6.914 95.358,7.282 95.749 C 7.492 95.973,7.801 96.155,7.969 96.155 C 8.164 96.155,8.311 96.323,8.378 96.620 C 8.683 97.991,8.786 98.136,9.567 98.282 C 10.011 98.366,10.165 98.492,10.239 98.836 C 10.411 99.629,10.672 100.185,10.915 100.278 C 11.046 100.329,11.153 100.477,11.153 100.608 C 11.153 100.739,11.496 101.127,11.914 101.470 C 12.332 101.812,12.674 102.198,12.674 102.327 C 12.674 102.858,13.090 103.406,13.701 103.681 C 14.174 103.894,14.455 104.186,14.737 104.753 C 15.065 105.413,15.257 105.584,15.984 105.860 C 16.546 106.074,16.938 106.352,17.118 106.666 C 17.270 106.930,17.515 107.192,17.664 107.249 C 17.812 107.306,18.105 107.506,18.315 107.693 C 18.525 107.880,18.953 108.117,19.266 108.220 C 19.663 108.350,19.942 108.609,20.184 109.071 C 20.520 109.712,20.730 109.840,21.842 110.086 C 22.185 110.161,22.307 110.290,22.307 110.578 C 22.307 110.997,22.942 111.703,23.320 111.703 C 23.882 111.703,24.784 112.181,25.461 112.838 C 26.342 113.693,26.577 113.826,27.477 113.975 C 28.037 114.067,28.218 114.193,28.427 114.632 C 28.691 115.185,30.294 115.933,31.207 115.929 C 31.798 115.926,32.105 116.106,32.365 116.609 C 32.700 117.257,34.243 117.749,36.583 117.955 C 38.355 118.111,38.438 118.136,39.190 118.758 C 40.367 119.732,40.699 119.821,43.498 119.914 C 47.018 120.031,47.486 120.098,47.486 120.488 C 47.486 121.632,49.248 121.843,58.736 121.837 C 67.906 121.830,69.547 121.634,70.380 120.445 C 70.627 120.092,70.804 120.066,73.639 119.959 C 77.631 119.809,78.594 119.545,78.776 118.547 C 78.829 118.258,79.022 118.191,80.104 118.089 C 85.543 117.572,85.837 117.497,86.307 116.511 C 86.527 116.051,86.686 115.927,87.059 115.927 C 88.497 115.927,89.853 115.351,90.215 114.585 C 90.445 114.098,90.614 113.972,91.170 113.874 C 92.292 113.678,93.459 113.073,93.677 112.576 C 94.227 111.318,95.865 109.844,96.711 109.844 C 97.217 109.844,97.964 109.175,98.110 108.592 C 98.191 108.270,98.392 108.105,98.879 107.959 C 99.628 107.735,99.884 107.483,100.127 106.735 C 100.267 106.302,100.418 106.186,101.005 106.062 C 101.705 105.915,102.239 105.271,102.239 104.574 C 102.239 104.446,102.555 104.229,102.942 104.093 C 103.677 103.833,103.765 103.733,104.170 102.704 C 104.364 102.209,104.511 102.070,104.838 102.070 C 105.335 102.070,105.957 101.357,105.957 100.788 C 105.957 100.149,106.324 99.502,107.181 98.628 C 107.625 98.175,108.030 97.605,108.081 97.360 C 108.227 96.659,108.396 96.441,108.926 96.265 C 109.583 96.047,109.781 95.746,110.000 94.631 C 110.146 93.890,110.336 93.538,110.922 92.926 C 111.793 92.018,112.041 91.597,112.041 91.026 C 112.041 90.391,112.216 90.061,112.638 89.901 C 113.242 89.671,113.906 88.034,114.060 86.391 C 114.209 84.797,114.136 84.946,114.931 84.616 C 115.693 84.301,115.897 83.610,116.045 80.833 L 116.149 78.899 116.621 78.805 C 117.639 78.601,117.743 78.244,117.952 74.204 L 118.113 71.095 118.700 70.557 C 119.022 70.262,119.329 69.836,119.381 69.611 C 119.858 67.567,120.001 58.907,119.575 57.887 C 119.116 56.789,121.572 56.865,86.608 56.865 C 51.652 56.865,53.847 56.800,53.266 57.861 C 52.876 58.573,52.824 74.848,53.208 75.935 C 53.662 77.219,52.353 77.138,73.469 77.191 C 91.121 77.236,92.269 77.256,92.269 77.529 C 92.269 78.605,91.659 80.459,91.273 80.556 C 90.748 80.687,90.241 81.200,90.241 81.597 C 90.241 82.100,89.874 83.031,89.532 83.397 C 89.358 83.583,88.953 84.017,88.630 84.363 C 88.308 84.708,88.043 85.164,88.041 85.377 C 88.038 85.931,87.862 86.127,87.253 86.259 C 86.612 86.398,86.433 86.590,86.238 87.343 C 86.122 87.792,85.962 87.954,85.461 88.126 C 84.598 88.423,84.353 88.659,84.230 89.312 C 84.139 89.801,84.035 89.894,83.401 90.053 C 81.973 90.413,81.110 90.883,80.930 91.398 C 80.760 91.885,80.181 92.269,79.616 92.269 C 79.208 92.269,78.580 92.966,78.580 93.420 C 78.580 93.691,78.479 93.790,78.200 93.790 C 76.541 93.790,74.694 94.625,74.694 95.375 C 74.694 95.523,74.177 95.642,73.041 95.757 C 72.132 95.849,71.132 96.052,70.818 96.209 C 70.505 96.365,70.151 96.493,70.033 96.493 C 69.914 96.493,69.629 96.735,69.398 97.030 L 68.978 97.566 65.118 97.713 C 60.938 97.871,51.954 97.736,50.653 97.495 C 50.096 97.392,49.679 97.177,49.295 96.793 C 48.688 96.187,47.639 95.916,45.078 95.706 C 44.012 95.619,43.768 95.547,43.768 95.317 C 43.768 94.692,42.899 94.178,41.452 93.950 C 40.112 93.738,40.061 93.714,39.953 93.221 C 39.798 92.517,39.538 92.304,38.514 92.041 C 38.010 91.913,37.498 91.653,37.324 91.438 C 36.847 90.849,35.886 90.261,35.059 90.053 C 34.509 89.914,34.305 89.779,34.305 89.553 C 34.305 88.736,33.605 88.044,32.779 88.044 C 32.561 88.044,32.418 87.890,32.349 87.579 C 32.133 86.608,32.066 86.506,31.462 86.223 C 30.948 85.982,30.721 85.689,30.145 84.522 C 29.716 83.654,29.295 83.035,29.049 82.913 C 28.829 82.803,28.591 82.506,28.520 82.252 C 28.449 81.999,28.333 81.582,28.264 81.327 C 28.177 81.010,27.915 80.754,27.439 80.524 C 26.834 80.231,26.729 80.096,26.642 79.510 C 26.339 77.456,26.021 76.793,25.289 76.689 C 24.968 76.643,24.904 76.470,24.735 75.187 C 24.487 73.300,24.451 73.204,23.676 72.348 C 22.893 71.482,22.817 71.166,22.803 68.716 C 22.780 64.943,22.259 63.033,21.251 63.033 C 20.948 63.033,20.934 62.892,20.985 60.426 L 21.039 57.818 21.688 57.257 C 22.438 56.609,22.803 54.747,22.810 51.525 C 22.816 48.659,22.959 47.837,23.470 47.708 C 24.267 47.508,24.657 46.211,24.880 43.018 C 24.921 42.431,25.006 42.311,25.602 42.004 C 26.323 41.632,26.656 40.875,26.687 39.539 C 26.704 38.778,27.077 38.247,27.690 38.113 C 28.163 38.009,28.448 37.479,28.599 36.417 C 28.630 36.203,28.801 36.058,29.068 36.022 C 29.679 35.938,30.072 35.516,30.183 34.824 C 30.295 34.117,30.495 33.822,31.136 33.412 C 31.392 33.248,31.601 33.005,31.601 32.871 C 31.601 32.738,31.747 32.492,31.924 32.326 C 32.102 32.160,32.314 31.764,32.396 31.446 C 32.478 31.128,32.656 30.816,32.791 30.752 C 34.987 29.717,35.348 29.499,35.560 29.090 C 35.747 28.730,35.990 28.595,36.736 28.438 C 37.503 28.277,37.842 28.083,38.559 27.395 C 39.212 26.770,39.619 26.521,40.126 26.437 C 41.095 26.277,41.657 25.901,41.838 25.291 C 41.993 24.768,42.009 24.761,43.680 24.541 C 44.623 24.416,45.485 24.210,45.637 24.073 C 45.786 23.938,46.029 23.828,46.178 23.828 C 46.326 23.828,46.624 23.610,46.840 23.345 C 47.205 22.896,47.381 22.843,49.332 22.589 C 50.487 22.439,51.510 22.238,51.605 22.142 C 51.701 22.047,51.913 21.969,52.078 21.969 C 52.242 21.969,52.546 21.741,52.752 21.462 L 53.127 20.955 58.663 20.955 C 64.352 20.955,64.951 21.017,65.146 21.631 C 65.317 22.171,68.672 22.814,71.324 22.814 C 71.874 22.814,72.094 22.932,72.702 23.554 C 73.450 24.318,73.552 24.354,75.746 24.618 C 76.428 24.701,76.593 24.798,76.881 25.287 C 77.067 25.601,77.392 25.926,77.604 26.009 C 78.253 26.263,79.789 26.700,80.033 26.700 C 80.160 26.700,80.314 26.910,80.374 27.165 C 80.547 27.894,80.913 28.190,81.887 28.393 C 82.528 28.526,82.819 28.674,82.892 28.906 C 82.949 29.085,83.414 29.509,83.924 29.848 C 84.723 30.378,85.499 31.080,86.422 32.108 C 86.547 32.248,86.703 32.535,86.768 32.746 C 86.833 32.958,87.090 33.261,87.339 33.420 C 87.949 33.810,88.201 34.149,88.208 34.588 C 88.215 35.070,88.972 35.959,89.434 36.026 C 89.710 36.067,89.846 36.268,89.998 36.866 C 90.134 37.402,90.439 37.904,90.958 38.446 C 91.610 39.126,91.735 39.371,91.826 40.150 C 91.946 41.169,92.830 43.063,93.257 43.216 C 93.680 43.367,94.127 43.886,94.128 44.226 C 94.133 45.722,94.863 45.837,104.882 45.919 C 116.013 46.010,116.512 45.934,117.346 44.019 C 118.315 41.795,118.105 38.955,116.858 37.424 C 116.308 36.749,116.096 36.338,116.096 35.946 C 116.093 33.745,115.525 32.087,114.703 31.881 C 114.196 31.753,114.143 31.607,113.994 29.923 C 113.880 28.630,113.582 28.111,112.845 27.920 C 112.315 27.783,112.291 27.736,111.993 26.273 C 111.661 24.638,111.432 24.255,110.703 24.109 C 110.299 24.029,110.211 23.909,110.116 23.316 C 110.030 22.778,109.831 22.460,109.252 21.933 C 108.483 21.233,107.816 20.100,107.816 19.494 C 107.816 19.094,107.152 18.420,106.759 18.420 C 106.416 18.420,106.256 18.178,106.041 17.331 C 105.906 16.799,105.736 16.595,105.196 16.317 C 104.723 16.074,104.426 15.760,104.204 15.269 C 103.881 14.556,103.372 14.195,102.689 14.195 C 102.384 14.195,102.271 14.051,102.114 13.466 C 101.917 12.731,101.437 12.336,100.737 12.336 C 100.460 12.336,100.042 11.716,100.042 11.302 C 100.042 10.992,99.600 10.677,98.897 10.488 C 98.352 10.341,98.144 10.171,97.900 9.672 C 97.627 9.113,97.456 8.998,96.409 8.662 C 94.823 8.153,94.510 7.972,94.389 7.493 C 94.268 7.008,93.374 6.423,92.753 6.422 C 92.410 6.422,92.242 6.285,92.027 5.830 C 91.872 5.505,91.729 5.239,91.709 5.239 C 91.689 5.239,91.265 5.090,90.768 4.908 C 90.271 4.726,89.530 4.528,89.123 4.466 C 88.674 4.399,88.382 4.267,88.382 4.130 C 88.382 3.256,87.311 2.801,84.495 2.482 C 82.738 2.283,82.720 2.277,82.667 1.813 C 82.581 1.065,81.147 0.507,79.310 0.507 C 78.924 0.507,78.749 0.428,78.749 0.253 C 78.749 0.030,76.468 0.000,59.231 0.000 C 41.994 0.000,39.713 0.030,39.713 0.253 M167.807 0.253 C 167.807 0.450,167.584 0.507,166.808 0.507 C 164.584 0.507,162.770 1.043,162.299 1.840 C 162.033 2.291,161.906 2.338,160.521 2.492 C 158.827 2.681,158.254 2.971,158.089 3.723 C 157.958 4.319,158.035 4.285,156.232 4.558 C 154.750 4.783,154.377 5.005,154.228 5.750 C 154.154 6.118,154.010 6.268,153.660 6.341 C 151.689 6.749,151.096 7.045,150.655 7.840 C 150.457 8.197,150.188 8.449,150.004 8.449 C 149.286 8.450,148.595 8.960,148.391 9.640 C 148.244 10.130,148.100 10.308,147.851 10.308 C 147.160 10.308,146.534 10.793,146.351 11.471 C 146.195 12.050,146.091 12.147,145.428 12.333 C 144.837 12.498,144.638 12.653,144.472 13.073 C 144.184 13.802,143.829 14.183,143.191 14.450 C 141.783 15.038,142.317 19.226,143.901 20.025 C 144.561 20.358,204.746 20.772,222.729 20.568 C 228.421 20.503,229.235 20.343,229.661 19.206 C 229.771 18.913,229.948 18.490,230.055 18.267 C 230.725 16.864,230.211 14.686,229.146 14.410 C 228.703 14.295,228.542 14.132,228.363 13.615 C 228.042 12.686,227.907 12.574,226.860 12.363 C 226.168 12.224,225.816 12.046,225.506 11.677 C 225.275 11.403,224.861 11.129,224.585 11.068 C 224.310 11.008,224.042 10.888,223.989 10.802 C 223.931 10.709,217.010 10.646,206.665 10.646 L 189.438 10.646 189.438 9.041 L 189.438 7.436 197.000 7.430 C 209.370 7.421,210.210 7.326,211.050 5.837 L 211.585 4.889 210.778 3.263 C 210.334 2.369,209.856 1.584,209.717 1.519 C 209.578 1.453,209.235 1.283,208.956 1.140 C 208.418 0.864,206.421 0.507,205.418 0.507 C 204.996 0.507,204.816 0.431,204.816 0.253 C 204.816 0.030,202.648 0.000,186.312 0.000 C 169.976 0.000,167.807 0.030,167.807 0.253 M260.161 4.722 C 259.596 4.861,258.048 5.858,258.048 6.083 C 258.048 6.162,257.851 6.461,257.610 6.748 C 257.052 7.411,256.902 8.915,256.759 15.276 L 256.657 19.822 256.015 20.431 C 255.137 21.263,255.025 22.263,254.905 30.334 C 254.808 36.849,254.739 37.546,254.139 37.982 C 253.416 38.508,253.363 39.100,252.884 51.965 C 252.793 54.395,252.611 55.429,252.273 55.429 C 251.928 55.429,251.566 56.808,251.364 58.893 C 251.063 62.009,251.323 62.977,252.865 64.475 C 253.977 65.555,252.586 65.479,272.261 65.531 L 290.276 65.578 290.466 65.996 C 290.765 66.652,291.566 67.024,293.172 67.254 C 294.624 67.463,294.674 67.485,295.632 68.376 C 296.169 68.877,296.748 69.286,296.918 69.286 C 297.359 69.286,297.761 69.464,297.761 69.659 C 297.761 70.245,298.326 70.949,298.880 71.053 C 299.478 71.165,299.512 71.207,299.695 72.038 C 299.819 72.606,300.310 73.058,300.925 73.173 C 301.351 73.253,301.393 73.344,301.587 74.601 C 301.842 76.249,302.041 76.640,302.722 76.835 L 303.253 76.987 303.387 79.093 C 303.674 83.592,303.349 88.213,302.747 88.213 C 302.197 88.213,301.840 88.918,301.627 90.423 C 301.425 91.855,301.396 91.922,300.942 92.022 C 300.360 92.150,299.833 92.792,299.691 93.547 C 299.614 93.958,299.422 94.211,298.995 94.463 C 298.670 94.655,298.318 95.039,298.213 95.318 C 298.066 95.707,297.863 95.867,297.342 96.006 C 296.490 96.233,296.137 96.543,296.010 97.178 C 295.925 97.605,295.831 97.678,295.357 97.687 C 293.854 97.715,292.616 98.100,292.269 98.646 C 291.720 99.511,291.431 99.558,287.039 99.502 L 283.021 99.451 282.575 98.925 C 281.987 98.232,281.699 98.105,280.134 97.845 C 278.895 97.639,278.810 97.597,278.721 97.153 C 278.599 96.541,278.237 96.231,277.387 96.004 C 276.856 95.863,276.645 95.696,276.457 95.270 C 276.292 94.895,275.985 94.615,275.496 94.394 C 274.927 94.137,274.778 93.981,274.778 93.643 C 274.778 93.161,274.011 92.269,273.597 92.269 C 273.196 92.269,272.919 91.923,272.919 91.419 C 272.919 90.933,272.352 90.309,271.821 90.213 C 271.508 90.157,271.469 89.941,271.290 87.281 C 271.022 83.290,270.770 82.471,269.806 82.465 C 269.091 82.460,268.738 82.257,268.471 81.698 C 268.288 81.315,268.041 81.089,267.728 81.019 C 267.469 80.961,266.992 80.845,266.667 80.762 C 266.341 80.678,262.719 80.610,258.617 80.609 C 250.371 80.608,250.287 80.618,249.759 81.640 C 249.516 82.109,249.326 82.235,248.645 82.379 C 247.381 82.645,247.233 83.070,247.234 86.439 C 247.236 91.199,247.577 93.158,248.528 93.883 C 248.985 94.232,249.092 94.430,249.092 94.927 C 249.092 97.495,249.668 99.552,250.481 99.889 C 250.742 99.997,250.987 100.247,251.027 100.444 C 251.067 100.641,251.148 101.031,251.207 101.310 C 251.267 101.589,251.355 102.099,251.404 102.445 C 251.501 103.139,252.129 103.880,252.688 103.961 C 252.952 104.000,253.095 104.199,253.225 104.710 C 253.434 105.538,253.752 105.957,254.170 105.957 C 254.592 105.957,255.006 106.411,255.006 106.875 C 255.006 107.372,255.750 108.119,256.312 108.186 C 256.671 108.229,256.788 108.379,256.981 109.043 C 257.199 109.794,257.265 109.862,257.973 110.051 C 258.639 110.229,258.750 110.328,258.896 110.867 C 259.096 111.612,259.492 111.994,260.143 112.069 C 260.647 112.127,260.751 112.247,261.091 113.168 C 261.257 113.619,261.419 113.735,262.109 113.901 C 262.802 114.067,262.944 114.170,263.033 114.572 C 263.187 115.276,263.565 115.519,265.061 115.877 C 266.334 116.181,266.433 116.238,266.753 116.848 C 267.139 117.585,267.396 117.712,268.794 117.862 C 270.685 118.065,270.891 118.122,270.891 118.440 C 270.891 118.852,271.545 119.416,272.159 119.533 C 272.438 119.586,273.046 119.705,273.511 119.796 C 273.975 119.888,275.116 119.969,276.046 119.975 C 278.063 119.990,278.449 120.076,278.597 120.543 C 278.923 121.570,279.517 121.680,285.374 121.790 C 292.082 121.916,294.381 121.603,294.381 120.563 C 294.381 120.208,294.889 120.124,297.940 119.978 C 301.153 119.824,301.561 119.721,302.493 118.825 C 303.223 118.123,303.642 117.955,304.669 117.955 C 306.706 117.955,308.801 117.306,309.271 116.530 C 309.504 116.145,309.812 115.945,310.472 115.751 C 311.355 115.492,311.397 115.449,311.958 114.239 C 312.022 114.101,312.389 113.926,312.772 113.850 C 313.417 113.722,313.492 113.649,313.766 112.876 C 313.945 112.374,314.165 112.040,314.319 112.040 C 314.946 112.038,315.667 111.380,315.774 110.711 C 315.872 110.103,315.931 110.042,316.515 109.948 C 317.270 109.828,317.438 109.651,317.688 108.716 C 317.844 108.134,317.965 107.991,318.379 107.900 C 318.976 107.769,319.561 107.086,319.561 106.519 C 319.561 106.260,319.836 105.846,320.321 105.374 C 320.739 104.968,321.082 104.547,321.082 104.439 C 321.082 104.331,321.193 104.132,321.328 103.996 C 321.464 103.860,321.622 103.466,321.680 103.121 C 321.837 102.170,321.890 102.070,322.230 102.070 C 322.838 102.070,323.266 101.349,323.591 99.778 L 323.903 98.268 346.658 98.225 L 369.413 98.182 369.417 107.266 C 369.422 119.056,369.441 119.151,371.891 119.638 C 373.397 119.937,387.961 119.926,389.480 119.624 C 391.640 119.195,391.600 119.411,391.670 107.692 L 391.728 98.189 395.822 98.144 L 399.916 98.099 399.916 87.283 L 399.916 76.468 395.822 76.423 L 391.729 76.378 391.682 62.397 C 391.629 46.517,391.733 47.627,390.259 47.297 C 389.645 47.160,389.354 47.011,389.354 46.835 C 389.354 46.692,389.149 46.362,388.900 46.101 L 388.445 45.627 382.286 45.627 C 374.618 45.627,374.731 45.605,373.833 47.318 C 373.319 48.299,373.297 48.428,373.190 51.079 C 373.085 53.668,373.056 53.844,372.682 54.196 C 372.464 54.400,372.286 54.698,372.286 54.858 C 372.286 55.018,372.176 55.270,372.042 55.418 C 371.623 55.881,371.416 59.070,371.299 66.875 L 371.187 74.350 370.564 74.863 C 370.179 75.180,369.921 75.552,369.888 75.838 L 369.835 76.299 357.879 76.342 C 349.060 76.374,345.923 76.336,345.923 76.194 C 345.923 76.089,346.145 75.566,346.416 75.032 C 346.688 74.498,346.961 73.718,347.024 73.299 C 347.112 72.716,347.235 72.492,347.549 72.349 C 347.776 72.246,348.008 72.028,348.065 71.865 C 348.123 71.701,348.303 71.263,348.467 70.891 C 348.630 70.520,348.815 69.759,348.878 69.202 C 349.044 67.733,349.094 67.626,349.816 67.170 C 350.537 66.715,350.708 66.292,350.942 64.385 C 351.062 63.411,351.122 63.281,351.471 63.231 C 352.221 63.125,352.477 62.649,352.707 60.933 C 352.871 59.715,352.986 59.316,353.174 59.316 C 353.586 59.316,354.373 58.443,354.373 57.986 C 354.373 57.755,354.446 57.332,354.537 57.046 C 354.627 56.761,354.744 56.242,354.798 55.894 C 354.870 55.420,355.016 55.198,355.379 55.010 C 355.893 54.745,356.437 53.441,356.673 51.909 C 356.759 51.351,356.881 51.142,357.187 51.025 C 357.407 50.941,357.672 50.662,357.775 50.405 C 357.878 50.147,358.098 49.670,358.264 49.345 C 358.439 49.002,358.615 48.138,358.685 47.289 C 358.797 45.907,358.828 45.817,359.230 45.717 C 359.939 45.539,360.236 44.979,360.474 43.371 C 360.682 41.972,360.729 41.856,361.157 41.707 C 361.880 41.455,362.091 41.025,362.409 39.163 C 362.609 37.988,362.673 37.852,363.142 37.610 C 363.721 37.311,364.094 36.460,364.347 34.862 C 364.497 33.918,364.615 33.646,365.009 33.336 C 365.272 33.128,365.541 32.749,365.605 32.493 C 365.669 32.237,365.793 31.983,365.880 31.929 C 365.967 31.876,366.124 31.381,366.229 30.829 C 366.621 28.772,366.679 28.636,367.335 28.208 C 368.028 27.757,368.121 27.489,368.379 25.178 C 368.517 23.942,369.076 22.746,369.628 22.503 C 369.918 22.374,370.222 21.484,370.330 20.442 C 370.467 19.131,370.565 18.945,371.301 18.599 C 371.887 18.324,371.954 18.118,372.387 15.251 C 372.446 14.860,372.560 14.702,372.782 14.702 C 373.629 14.702,374.303 13.056,374.311 10.968 C 374.313 10.387,374.419 10.069,374.736 9.701 C 375.388 8.943,375.241 7.309,374.429 6.300 C 374.222 6.042,373.945 5.620,373.815 5.364 C 373.416 4.576,372.963 4.542,363.618 4.596 C 354.444 4.650,354.881 4.616,353.359 5.397 C 353.001 5.580,352.007 7.588,352.007 8.128 C 352.007 8.467,351.884 8.628,351.508 8.784 C 350.934 9.022,350.578 9.500,350.436 10.224 C 350.382 10.503,350.298 10.921,350.250 11.153 C 350.202 11.386,350.117 11.864,350.062 12.217 C 349.987 12.693,349.853 12.899,349.545 13.016 C 349.317 13.103,349.044 13.385,348.939 13.643 C 348.834 13.900,348.641 14.358,348.511 14.660 C 348.380 14.962,348.229 15.582,348.175 16.038 C 348.097 16.693,347.975 16.943,347.591 17.226 C 347.324 17.424,347.106 17.662,347.106 17.756 C 347.106 17.850,346.946 18.143,346.750 18.408 C 346.500 18.747,346.337 19.354,346.201 20.457 C 346.013 21.981,345.993 22.030,345.504 22.193 C 344.637 22.482,344.233 23.495,344.233 25.376 C 344.233 25.937,344.174 26.032,343.768 26.128 C 342.820 26.354,342.595 26.844,342.284 29.360 C 342.192 30.098,342.099 30.282,341.725 30.461 C 341.209 30.708,340.624 32.126,340.436 33.587 C 340.374 34.075,340.194 34.601,340.039 34.756 C 339.883 34.910,339.641 35.205,339.501 35.410 C 339.362 35.616,339.108 35.981,338.936 36.222 C 338.747 36.489,338.548 37.243,338.429 38.144 C 338.257 39.455,338.192 39.634,337.875 39.679 C 337.086 39.792,336.460 41.278,336.460 43.036 C 336.460 43.467,336.388 43.599,336.153 43.599 C 335.406 43.599,334.840 44.751,334.510 46.941 C 334.424 47.506,334.297 47.716,333.922 47.910 C 333.282 48.241,332.760 49.657,332.557 51.618 C 332.406 53.070,332.261 53.393,331.758 53.398 C 331.226 53.405,330.545 55.347,330.545 56.858 C 330.545 57.161,330.454 57.288,330.236 57.288 C 329.503 57.288,329.030 58.240,328.742 60.299 C 328.666 60.843,328.513 61.123,328.145 61.396 C 327.684 61.736,327.550 61.959,327.007 63.281 C 326.894 63.556,326.759 64.317,326.707 64.971 C 326.614 66.151,326.333 66.751,325.872 66.751 C 325.747 66.751,325.484 66.911,325.289 67.106 C 324.567 67.829,323.910 67.177,323.546 65.378 C 323.239 63.857,322.695 63.033,322.000 63.033 C 321.852 63.033,321.720 62.773,321.651 62.344 C 321.571 61.845,321.270 61.331,320.553 60.473 C 320.010 59.823,319.419 58.959,319.239 58.553 C 319.001 58.014,318.728 57.721,318.223 57.464 C 317.780 57.238,317.533 56.996,317.533 56.790 C 317.533 56.308,316.746 55.469,316.178 55.344 C 315.798 55.260,315.602 55.063,315.361 54.516 C 315.128 53.991,314.890 53.741,314.471 53.583 C 313.430 53.189,313.146 53.012,313.044 52.692 C 312.909 52.266,311.730 51.518,310.689 51.197 C 310.067 51.005,309.830 50.843,309.792 50.584 C 309.697 49.926,309.060 49.554,307.478 49.230 C 306.177 48.965,305.949 48.868,305.906 48.562 C 305.789 47.745,304.182 47.148,302.101 47.148 C 301.780 47.148,301.422 47.030,301.300 46.884 C 301.180 46.738,300.851 46.500,300.570 46.355 C 300.289 46.209,299.965 45.996,299.849 45.881 C 299.490 45.522,297.156 45.273,292.945 45.145 C 288.920 45.023,288.884 45.019,288.244 44.573 C 287.300 43.915,286.564 43.849,280.651 43.892 L 275.285 43.931 275.285 41.672 C 275.285 39.473,275.296 39.407,275.692 39.147 C 276.569 38.572,277.145 33.822,277.144 27.165 L 277.144 26.700 296.803 26.700 C 316.188 26.700,316.477 26.696,317.572 26.352 C 319.792 25.655,319.814 25.549,319.814 15.632 C 319.814 5.477,319.780 5.331,317.279 4.793 C 316.151 4.550,261.137 4.482,260.161 4.722 M136.255 23.824 C 135.678 23.890,135.108 24.022,134.988 24.117 C 134.868 24.213,134.495 24.379,134.159 24.487 C 133.550 24.683,133.504 24.750,132.818 26.447 C 132.743 26.633,132.635 27.070,132.577 27.419 C 132.492 27.937,132.402 28.052,132.084 28.052 C 131.317 28.052,130.675 29.463,130.640 31.225 C 130.631 31.699,130.558 31.793,130.131 31.878 C 129.257 32.053,128.931 32.721,128.678 34.854 C 128.584 35.643,128.504 35.826,128.252 35.826 C 127.281 35.826,126.746 37.573,126.998 39.924 C 127.267 42.441,124.811 42.248,156.495 42.248 L 183.016 42.248 183.016 43.853 L 183.016 45.458 156.358 45.459 C 141.696 45.460,128.949 45.510,128.031 45.571 C 125.485 45.739,124.905 46.525,124.752 50.013 C 124.682 51.602,124.635 51.809,124.288 52.083 C 123.526 52.682,123.194 54.313,123.194 57.462 C 123.194 60.650,123.320 61.034,124.442 61.244 C 125.014 61.351,125.222 61.599,125.222 62.173 C 125.222 62.335,125.418 62.652,125.658 62.877 L 126.094 63.287 154.555 63.333 L 183.016 63.379 183.016 64.981 L 183.016 66.582 154.837 66.583 C 124.591 66.584,125.600 66.554,125.095 67.477 C 124.441 68.673,124.784 75.836,125.540 76.770 C 126.489 77.944,126.680 78.196,126.869 78.536 C 126.986 78.744,127.081 79.130,127.081 79.394 C 127.081 81.010,125.891 80.946,156.324 80.946 L 183.016 80.946 183.016 82.463 L 183.016 83.979 157.626 84.026 C 132.374 84.072,132.232 84.075,131.643 84.419 C 130.218 85.254,130.278 89.899,131.722 90.503 C 132.323 90.754,132.545 91.236,132.916 93.089 C 133.052 93.765,133.538 94.297,134.020 94.297 C 134.569 94.297,134.959 94.578,135.193 95.143 C 135.668 96.290,133.023 96.199,170.342 96.353 C 188.885 96.430,211.052 96.474,219.603 96.451 L 235.150 96.409 236.149 95.902 C 236.834 95.554,237.204 95.249,237.327 94.930 C 237.425 94.675,237.563 94.466,237.633 94.466 C 237.837 94.466,238.276 93.507,238.276 93.063 C 238.276 92.747,238.426 92.599,238.956 92.391 C 239.772 92.070,240.068 91.480,240.236 89.840 C 240.318 89.042,240.420 88.720,240.589 88.720 C 241.592 88.720,241.956 88.047,242.252 85.643 C 242.341 84.926,242.407 84.828,242.929 84.639 C 244.536 84.058,244.671 77.520,243.093 76.724 C 242.647 76.499,239.343 76.463,216.012 76.424 L 189.438 76.380 189.438 74.863 L 189.438 73.346 217.195 73.302 L 244.951 73.257 245.936 72.688 C 246.533 72.343,246.989 71.945,247.097 71.675 C 247.194 71.430,247.436 70.925,247.634 70.553 C 248.081 69.712,248.201 58.576,247.772 57.771 C 247.256 56.804,249.273 56.869,218.124 56.820 L 189.438 56.775 189.438 55.046 L 189.438 53.316 216.603 53.331 C 246.906 53.347,244.929 53.422,245.344 52.231 C 245.481 51.839,245.661 51.679,246.052 51.601 C 247.772 51.257,248.168 48.838,246.726 47.486 C 246.291 47.079,246.270 46.977,246.161 44.680 C 245.962 40.498,245.726 39.812,244.425 39.616 C 243.836 39.528,243.684 39.437,243.684 39.170 C 243.684 38.985,243.448 38.614,243.159 38.344 L 242.634 37.854 216.036 37.854 L 189.438 37.854 189.438 36.248 L 189.438 34.643 213.561 34.631 C 239.344 34.617,239.291 34.619,239.922 33.885 C 240.483 33.233,240.453 29.127,239.882 28.318 C 239.696 28.054,239.453 27.681,239.342 27.489 C 239.231 27.296,238.977 27.015,238.777 26.864 C 238.551 26.694,238.305 26.177,238.129 25.505 C 237.669 23.746,240.817 23.927,208.534 23.808 C 170.828 23.669,137.550 23.677,136.255 23.824 M146.177 99.265 C 145.944 99.389,145.210 99.533,144.544 99.586 C 143.027 99.707,142.818 99.841,142.240 101.070 C 141.817 101.972,141.795 102.102,142.016 102.448 C 142.150 102.659,142.346 103.401,142.451 104.098 C 142.669 105.540,142.857 105.802,143.857 106.049 C 144.386 106.179,144.585 106.318,144.623 106.585 C 144.840 108.073,144.243 108.028,164.892 108.097 L 183.016 108.158 183.016 109.667 L 183.016 111.176 172.919 111.236 C 160.049 111.313,160.117 111.300,160.120 113.702 C 160.124 116.675,161.175 117.681,164.564 117.952 C 166.157 118.079,166.373 118.137,166.739 118.531 C 166.962 118.772,167.256 118.969,167.392 118.969 C 167.527 118.969,167.638 119.044,167.638 119.136 C 167.638 119.588,168.973 119.836,172.141 119.971 C 175.405 120.111,175.750 120.167,175.750 120.555 C 175.750 121.655,177.952 121.898,186.988 121.797 C 193.444 121.725,194.906 121.616,195.170 121.188 C 195.703 120.326,196.535 120.101,199.662 119.973 C 203.788 119.804,204.985 119.464,204.985 118.459 C 204.985 118.195,205.200 118.142,206.633 118.048 C 210.850 117.773,212.105 117.469,212.462 116.637 C 212.731 116.011,212.673 116.050,213.564 115.905 C 215.655 115.565,215.960 115.423,216.429 114.578 C 216.692 114.104,216.891 113.966,217.444 113.871 C 218.502 113.691,219.833 112.952,219.952 112.480 C 220.029 112.173,220.241 112.026,220.842 111.864 C 221.792 111.609,222.355 111.140,222.424 110.546 C 222.468 110.173,222.590 110.084,223.221 109.959 C 223.996 109.807,224.415 109.521,224.424 109.138 C 224.434 108.761,224.819 108.376,225.517 108.046 C 226.053 107.793,226.220 107.598,226.369 107.055 C 226.536 106.450,226.637 106.354,227.337 106.141 C 228.169 105.887,228.358 105.620,228.571 104.394 C 228.650 103.938,228.805 103.701,229.122 103.549 C 230.589 102.846,230.239 100.924,228.490 100.077 L 227.545 99.620 196.113 99.535 C 171.403 99.469,164.602 99.406,164.312 99.240 C 163.760 98.924,146.776 98.948,146.177 99.265 M248.189 134.684 C 247.689 134.840,246.222 136.267,246.215 136.604 C 246.213 136.711,246.063 136.988,245.881 137.220 C 245.560 137.630,245.550 137.983,245.554 148.965 L 245.557 160.287 245.930 161.029 C 246.912 162.979,252.496 163.183,253.389 161.302 C 253.639 160.776,253.684 160.758,254.982 160.657 C 256.694 160.525,258.465 159.836,258.750 159.191 C 258.989 158.652,260.959 158.171,261.576 158.502 C 261.761 158.601,262.178 158.682,262.503 158.682 C 263.055 158.682,263.625 159.026,263.625 159.359 C 263.625 159.738,265.760 160.588,266.920 160.670 C 268.365 160.772,268.635 160.901,268.779 161.556 C 268.969 162.420,269.396 162.516,273.644 162.652 C 277.940 162.790,279.489 162.588,280.355 161.775 L 280.777 161.378 280.833 155.214 L 280.888 149.049 282.216 149.049 L 283.545 149.049 283.646 151.035 C 283.745 152.983,283.799 157.468,283.732 158.217 C 283.638 159.279,284.221 161.960,284.610 162.254 C 285.607 163.007,289.691 162.917,290.527 162.123 C 291.316 161.373,291.733 161.281,292.008 161.795 C 292.312 162.362,292.859 162.551,294.630 162.697 C 296.008 162.811,296.165 162.860,296.351 163.234 C 296.970 164.477,301.030 164.448,301.600 163.197 C 301.768 162.829,301.924 162.777,303.196 162.673 C 305.252 162.503,305.616 162.333,306.026 161.345 C 306.470 160.278,307.545 160.186,308.091 161.168 L 308.394 161.711 307.910 162.195 C 307.503 162.602,307.410 162.862,307.321 163.849 C 307.264 164.492,307.143 165.251,307.052 165.535 C 306.667 166.748,307.610 168.304,308.812 168.440 C 309.316 168.496,309.590 168.609,309.590 168.759 C 309.590 168.949,310.415 168.990,314.237 168.990 C 316.983 168.990,318.885 168.926,318.885 168.833 C 318.885 168.747,319.322 168.625,319.856 168.562 C 322.478 168.251,323.447 167.793,323.447 166.866 C 323.447 166.454,323.972 165.850,324.467 165.693 C 324.869 165.565,325.270 164.526,325.401 163.269 L 325.513 162.196 326.043 162.315 C 327.599 162.665,328.015 162.724,328.987 162.730 C 330.101 162.738,330.985 163.010,331.357 163.459 C 331.984 164.214,334.179 164.018,334.565 163.172 C 334.727 162.815,334.875 162.777,336.403 162.699 C 338.171 162.608,338.926 162.374,339.087 161.867 C 339.247 161.364,339.998 161.479,340.643 162.104 L 341.210 162.653 343.540 162.653 C 346.152 162.653,346.625 162.515,346.938 161.659 C 347.044 161.369,347.247 160.894,347.388 160.603 C 347.580 160.207,347.616 159.802,347.532 158.997 C 347.241 156.231,347.250 150.570,347.545 150.570 C 347.921 150.570,348.627 149.793,348.627 149.379 C 348.627 148.648,350.399 148.924,350.711 149.703 C 350.855 150.063,351.091 150.403,351.236 150.459 C 351.467 150.547,351.500 151.182,351.500 155.518 C 351.500 159.616,351.543 160.533,351.748 160.804 C 351.884 160.985,351.998 161.261,352.001 161.419 C 352.004 161.576,352.190 161.918,352.415 162.179 L 352.822 162.653 355.258 162.653 C 357.616 162.653,357.713 162.639,358.273 162.216 C 359.160 161.546,359.531 161.513,360.111 162.054 C 360.665 162.572,361.349 162.734,362.991 162.734 C 364.017 162.735,364.118 162.770,364.526 163.265 C 365.192 164.076,367.892 164.079,367.892 163.270 C 367.892 162.996,368.906 162.738,369.987 162.736 C 370.554 162.735,371.619 162.586,372.353 162.406 C 373.608 162.098,373.724 162.095,374.296 162.357 C 375.794 163.041,388.085 162.792,388.901 162.060 C 388.978 161.992,389.358 162.095,389.746 162.291 C 390.403 162.621,390.781 162.650,395.226 162.707 L 400.000 162.769 400.000 159.395 L 400.000 156.021 397.803 155.900 L 395.606 155.778 395.606 152.414 L 395.606 149.049 396.662 149.048 C 397.243 149.048,398.233 148.998,398.862 148.939 L 400.006 148.831 399.961 144.758 L 399.916 140.684 397.784 140.637 L 395.653 140.590 395.564 139.201 C 395.425 137.040,394.991 136.566,393.123 136.537 C 392.862 136.533,392.345 136.419,391.973 136.285 C 391.381 136.071,391.202 136.072,390.537 136.290 C 390.118 136.428,389.347 136.621,388.823 136.719 C 387.521 136.964,387.313 137.244,387.108 139.034 L 386.938 140.515 382.696 140.518 C 377.746 140.520,376.947 140.682,376.185 141.839 C 375.889 142.290,375.587 142.512,375.087 142.647 C 374.708 142.748,374.346 142.916,374.282 143.018 C 374.202 143.147,373.931 143.088,373.418 142.832 C 373.007 142.627,372.510 142.459,372.313 142.459 C 372.071 142.459,371.919 142.321,371.848 142.036 C 371.540 140.808,369.563 140.321,365.504 140.475 C 363.198 140.562,361.977 140.787,361.977 141.123 C 361.977 141.207,361.829 141.276,361.648 141.276 C 361.467 141.276,361.116 141.542,360.868 141.866 C 360.574 142.252,360.175 142.527,359.719 142.659 C 359.334 142.771,358.861 142.962,358.667 143.084 C 358.364 143.275,358.262 143.262,357.944 142.985 C 357.740 142.808,357.309 142.614,356.987 142.553 C 356.565 142.474,356.401 142.354,356.401 142.126 C 356.401 140.882,354.109 140.312,349.782 140.478 L 347.242 140.576 347.345 139.870 C 347.960 135.642,347.200 134.518,343.726 134.518 C 341.356 134.518,340.928 134.679,340.447 135.751 C 340.230 136.234,339.896 136.806,339.704 137.022 C 339.225 137.561,338.995 138.783,338.995 140.777 C 338.995 142.669,338.878 142.812,338.001 141.994 C 337.727 141.738,337.314 141.358,337.083 141.148 C 336.503 140.621,335.296 140.431,332.540 140.431 C 328.640 140.431,327.376 140.752,327.110 141.810 C 327.023 142.157,326.842 142.288,326.247 142.438 C 325.281 142.682,325.306 142.685,325.306 142.295 C 325.306 141.080,323.573 140.524,320.068 140.614 C 319.371 140.631,317.669 140.587,316.287 140.514 C 312.210 140.301,310.372 140.687,309.806 141.876 C 309.632 142.240,309.407 142.459,309.204 142.459 C 308.726 142.459,307.731 142.971,307.731 143.218 C 307.731 143.335,307.617 143.526,307.478 143.642 C 307.298 143.791,307.224 143.796,307.224 143.659 C 307.224 143.552,307.015 143.374,306.760 143.261 C 306.504 143.149,306.257 143.006,306.210 142.943 C 306.164 142.881,305.688 142.636,305.153 142.400 C 304.523 142.121,304.128 141.830,304.030 141.574 C 303.700 140.704,302.515 140.433,299.028 140.433 C 295.518 140.433,294.434 140.682,294.000 141.588 C 293.873 141.853,293.518 142.129,293.105 142.285 C 292.728 142.427,292.074 142.828,291.651 143.177 C 290.718 143.945,290.775 143.943,290.355 143.232 C 290.086 142.775,289.861 142.623,289.292 142.510 C 288.678 142.389,288.551 142.291,288.437 141.850 C 288.156 140.769,286.877 140.431,283.068 140.431 L 280.862 140.431 280.862 139.442 C 280.862 134.473,280.864 134.475,271.565 134.550 C 267.257 134.586,265.297 134.660,265.061 134.798 C 264.875 134.906,264.473 135.088,264.166 135.202 C 263.095 135.600,263.044 135.875,262.978 141.529 L 262.920 146.599 260.422 146.599 L 257.924 146.599 257.831 141.445 C 257.730 135.884,257.634 135.214,256.884 134.831 C 256.362 134.563,248.976 134.439,248.189 134.684 M223.222 137.617 C 222.796 137.734,222.185 137.984,221.865 138.173 C 221.545 138.362,221.089 138.565,220.852 138.625 C 220.251 138.776,220.000 139.433,219.900 141.111 L 219.814 142.551 218.610 142.569 C 217.948 142.579,217.185 142.675,216.914 142.783 C 216.542 142.931,216.209 142.930,215.540 142.780 C 213.990 142.433,212.590 143.046,212.590 144.071 C 212.590 144.639,210.617 144.737,210.431 144.179 C 210.310 143.816,209.687 143.135,209.477 143.135 C 209.359 143.135,209.003 143.002,208.687 142.839 C 207.160 142.054,203.180 142.528,202.795 143.540 C 202.714 143.753,202.394 144.021,202.084 144.136 C 201.774 144.252,201.032 144.578,200.434 144.861 L 199.347 145.377 199.061 145.024 C 198.904 144.830,198.424 144.583,197.994 144.474 C 197.542 144.361,197.212 144.180,197.212 144.047 C 197.212 142.755,192.707 141.864,191.356 142.888 C 190.997 143.160,189.326 143.220,189.240 142.964 C 189.128 142.628,187.253 142.466,185.450 142.637 C 184.299 142.746,182.594 142.746,180.495 142.637 C 177.887 142.502,177.127 142.515,176.386 142.708 C 175.709 142.884,175.286 142.902,174.727 142.776 C 174.013 142.616,172.477 142.714,172.117 142.943 C 172.024 143.002,171.681 143.128,171.356 143.224 C 170.933 143.348,170.669 143.578,170.427 144.032 C 170.135 144.580,170.031 144.652,169.666 144.553 C 169.434 144.490,168.978 144.392,168.652 144.334 C 168.201 144.254,168.048 144.136,168.005 143.837 C 167.738 141.966,160.203 142.000,160.203 143.873 C 160.203 144.024,160.081 144.149,159.931 144.149 C 159.739 144.149,159.695 144.062,159.780 143.853 C 160.902 141.092,160.388 139.189,158.378 138.655 C 157.755 138.490,157.040 138.251,156.789 138.125 C 156.230 137.845,154.569 137.825,154.068 138.092 C 153.867 138.200,153.100 138.422,152.365 138.586 C 151.621 138.752,150.897 139.021,150.733 139.193 C 150.449 139.490,149.893 142.008,149.894 142.994 C 149.894 143.315,149.679 143.634,149.140 144.108 C 148.009 145.104,147.685 146.768,148.294 148.458 C 148.428 148.830,148.539 149.292,148.540 149.485 C 148.543 149.891,149.201 150.570,149.591 150.570 C 149.824 150.570,149.867 151.102,149.940 154.837 C 150.051 160.568,150.115 160.710,152.604 160.710 C 155.193 160.710,156.184 160.275,156.488 159.007 C 156.675 158.229,156.715 158.183,157.135 158.276 C 158.086 158.487,158.175 158.542,158.175 158.922 C 158.175 159.428,158.865 160.161,159.470 160.297 C 159.734 160.356,160.215 160.473,160.541 160.556 C 162.363 161.023,168.948 160.600,169.643 159.971 C 169.913 159.726,169.972 159.726,170.320 159.970 C 171.680 160.922,176.347 160.864,177.329 159.882 C 177.801 159.410,177.920 158.318,177.934 154.330 C 177.945 151.495,177.988 150.908,178.186 150.908 C 178.318 150.908,178.535 150.867,178.668 150.816 C 178.872 150.737,178.924 151.364,179.003 154.829 C 179.112 159.652,179.246 160.247,180.287 160.537 C 181.655 160.917,184.701 160.621,185.268 160.054 C 185.588 159.734,185.612 159.736,186.950 160.220 C 188.768 160.876,191.402 160.791,192.824 160.031 C 193.007 159.933,193.221 159.963,193.443 160.119 C 193.851 160.405,195.598 160.707,196.854 160.708 C 198.583 160.711,199.409 160.222,199.409 159.195 C 199.409 158.138,200.419 158.237,200.778 159.329 C 200.891 159.670,201.104 160.039,201.252 160.149 C 202.057 160.747,207.750 160.924,210.610 160.441 C 212.065 160.195,212.269 160.195,212.993 160.441 C 214.339 160.898,217.602 160.623,218.225 159.999 C 218.614 159.610,218.842 157.356,218.842 153.912 L 218.842 150.908 219.328 150.908 L 219.814 150.908 219.891 154.922 C 219.999 160.574,219.978 160.541,223.496 160.596 C 226.382 160.641,226.544 160.438,226.731 156.524 C 226.840 154.229,226.963 153.963,227.630 154.577 C 227.676 154.620,227.714 156.644,227.714 159.076 C 227.714 164.561,227.731 164.595,230.334 164.594 C 233.030 164.593,233.939 164.180,234.219 162.827 C 234.360 162.152,234.501 161.896,234.813 161.754 C 235.386 161.493,236.176 159.708,236.322 158.344 C 236.444 157.208,236.768 156.485,237.156 156.485 C 237.763 156.485,238.070 155.459,238.361 152.460 C 238.495 151.083,238.541 150.980,239.141 150.731 C 240.583 150.134,240.716 144.394,239.319 143.083 C 238.840 142.634,236.466 142.594,235.319 143.016 C 234.545 143.301,233.562 144.943,233.551 145.970 C 233.546 146.406,233.452 146.558,233.108 146.689 C 232.558 146.898,232.362 146.779,232.362 146.234 C 232.362 145.481,231.887 144.759,231.176 144.431 C 230.808 144.262,230.376 143.902,230.216 143.631 C 229.790 142.909,228.960 142.577,227.798 142.661 L 226.828 142.731 226.743 141.201 C 226.664 139.766,226.393 138.741,226.093 138.741 C 226.020 138.741,225.709 138.479,225.401 138.158 C 224.727 137.456,224.246 137.337,223.222 137.617 M316.730 149.047 C 316.999 149.049,317.026 149.287,317.026 151.655 L 317.026 154.261 316.536 154.369 C 316.267 154.428,315.913 154.624,315.750 154.805 C 315.449 155.137,315.035 155.207,314.388 155.033 C 313.939 154.912,313.772 153.364,313.930 150.781 L 314.034 149.065 314.896 149.001 C 315.370 148.966,315.910 148.961,316.096 148.991 C 316.282 149.020,316.567 149.046,316.730 149.047 M300.104 149.641 C 300.221 149.966,300.465 150.311,300.645 150.407 C 301.245 150.728,301.129 154.026,300.507 154.323 C 300.199 154.470,299.959 154.786,299.794 155.262 C 299.462 156.219,298.315 156.354,297.983 155.475 C 297.879 155.198,297.520 154.810,297.186 154.613 L 296.578 154.255 296.578 152.271 C 296.578 150.314,296.584 150.284,297.004 150.093 C 297.238 149.986,297.502 149.707,297.591 149.474 C 297.882 148.709,299.813 148.838,300.104 149.641 M334.197 149.179 C 334.771 149.559,334.583 154.334,333.983 154.608 C 333.760 154.709,333.420 155.059,333.227 155.385 C 332.748 156.198,331.501 156.282,331.312 155.513 C 331.127 154.759,330.771 154.342,330.218 154.231 L 329.700 154.128 329.700 152.349 C 329.700 150.683,329.721 150.570,330.038 150.570 C 330.470 150.570,330.971 150.070,331.115 149.496 C 331.229 149.043,333.619 148.796,334.197 149.179 M367.863 149.528 C 367.929 149.992,368.410 150.515,368.848 150.599 C 369.122 150.652,369.165 150.864,369.207 152.369 L 369.255 154.080 368.786 154.197 C 368.119 154.365,367.918 154.576,367.718 155.322 C 367.464 156.263,366.259 156.322,365.826 155.414 C 365.669 155.083,365.340 154.759,365.035 154.633 L 364.512 154.416 364.512 151.727 L 364.512 149.037 366.160 149.086 C 367.740 149.132,367.810 149.150,367.863 149.528 M164.456 151.529 C 164.552 152.736,164.165 153.138,163.334 152.694 C 162.490 152.244,162.487 151.066,163.329 150.887 C 164.359 150.668,164.389 150.685,164.456 151.529 M376.003 153.471 C 376.003 153.673,375.950 153.785,375.886 153.720 C 375.703 153.537,375.678 153.105,375.849 153.105 C 375.934 153.105,376.003 153.270,376.003 153.471 M323.924 158.803 C 323.825 158.922,323.658 159.014,323.553 159.007 C 323.434 158.998,323.441 158.961,323.574 158.908 C 323.690 158.861,323.785 158.749,323.785 158.658 C 323.785 158.567,323.715 158.537,323.628 158.590 C 323.542 158.644,323.427 158.616,323.373 158.528 C 323.239 158.312,323.840 158.201,323.987 158.415 C 324.051 158.509,324.023 158.684,323.924 158.803 " stroke="none" fill="#fcfcfc" fill-rule="evenodd"></path><path id="path1" d="M375.732 153.354 C 375.793 153.771,376.003 153.862,376.003 153.471 C 376.003 153.270,375.934 153.105,375.849 153.105 C 375.765 153.105,375.712 153.217,375.732 153.354 M323.572 158.307 C 323.408 158.341,323.318 158.441,323.373 158.528 C 323.427 158.616,323.542 158.644,323.628 158.590 C 323.715 158.537,323.785 158.567,323.785 158.658 C 323.785 158.749,323.690 158.861,323.574 158.908 C 323.441 158.961,323.434 158.998,323.553 159.007 C 323.826 159.026,324.125 158.617,323.987 158.415 C 323.923 158.321,323.736 158.272,323.572 158.307 " stroke="none" fill="#f4f4f4" fill-rule="evenodd"></path><path id="path2" d="" stroke="none" fill="#fc100f8" fill-rule="evenodd"></path><path id="path3" d="" stroke="none" fill="#fc100f8" fill-rule="evenodd"></path><path id="path4" d="" stroke="none" fill="#fc100f8" fill-rule="evenodd"></path></g></svg>